<?xml version='1.0' encoding='utf-8'?>
<svg xmlns="http://www.w3.org/2000/svg" version="1.1" width="914px" height="1012px" style="shape-rendering:geometricPrecision; text-rendering:geometricPrecision; image-rendering:optimizeQuality; fill-rule:evenodd; clip-rule:evenodd"> <g><path style="opacity:1" fill="#fefefe" d="M -0.5,-0.5 C 304.167,-0.5 608.833,-0.5 913.5,-0.5C 913.5,286.833 913.5,574.167 913.5,861.5C 911.801,861.66 910.134,861.494 908.5,861C 898.464,857.269 888.797,853.102 879.5,848.5C 877.574,846.707 875.241,845.707 872.5,845.5C 864.516,842.173 856.516,838.839 848.5,835.5C 847.486,834.326 846.153,833.66 844.5,833.5C 806.442,816.713 767.442,801.88 727.5,789C 719.355,782.023 711.689,774.523 704.5,766.5C 704.573,764.973 703.906,763.973 702.5,763.5C 692.399,751.09 684.233,737.423 678,722.5C 677.051,720.907 675.885,719.574 674.5,718.5C 674.573,716.973 673.906,715.973 672.5,715.5C 667.23,709.729 661.73,704.062 656,698.5C 653.453,696.027 651.953,693.027 651.5,689.5C 651.833,686.833 652.167,684.167 652.5,681.5C 651.961,668.286 652.627,654.952 654.5,641.5C 655.101,637.465 655.934,633.465 657,629.5C 665.136,611.974 670.969,593.641 674.5,574.5C 675.743,571.323 676.743,567.99 677.5,564.5C 681.489,564.884 685.155,564.217 688.5,562.5C 691.974,561.271 694.307,558.938 695.5,555.5C 696.653,554.687 696.653,553.687 695.5,552.5C 701.598,536.706 707.598,520.872 713.5,505C 713.333,504.5 713.167,504 713,503.5C 712,505.833 711,508.167 710,510.5C 709.833,509.833 709.667,509.167 709.5,508.5C 711.915,494.655 714.748,480.988 718,467.5C 713.059,484.171 708.226,500.838 703.5,517.5C 698.327,521.832 693.494,526.499 689,531.5C 688.333,534.5 688.333,537.5 689,540.5C 690.147,538.269 691.147,535.935 692,533.5C 695.508,531.413 698.842,529.08 702,526.5C 701.852,527.825 702.018,528.992 702.5,530C 699.699,535.777 696.532,541.277 693,546.5C 692.834,542.489 692,541.989 690.5,545C 687.385,545.03 684.885,546.197 683,548.5C 682.51,547.207 682.343,545.873 682.5,544.5C 683.515,538.013 684.182,531.346 684.5,524.5C 685.104,511.935 686.271,499.268 688,486.5C 689.992,485.456 691.658,483.456 693,480.5C 694.228,474.792 695.561,469.125 697,463.5C 699.282,459.959 701.949,459.626 705,462.5C 706.063,468.022 707.73,473.356 710,478.5C 711.486,471.094 713.486,463.76 716,456.5C 717.333,455.167 718.667,453.833 720,452.5C 720.333,452.833 720.667,453.167 721,453.5C 720.667,457.167 720.333,460.833 720,464.5C 722.501,459.494 725.501,454.827 729,450.5C 729.43,453.192 729.263,455.859 728.5,458.5C 725.237,464.789 723.071,471.455 722,478.5C 726.892,468.05 731.226,457.384 735,446.5C 735.667,440.833 735.667,435.167 735,429.5C 734.329,428.748 733.496,428.414 732.5,428.5C 730.461,423.622 727.127,419.788 722.5,417C 715.739,417.039 709.073,416.206 702.5,414.5C 705.921,408.029 708.921,401.362 711.5,394.5C 711.146,391.749 710.479,389.083 709.5,386.5C 712.435,369.606 714.435,352.606 715.5,335.5C 716.924,333.485 717.59,331.152 717.5,328.5C 718.167,324.167 718.833,319.833 719.5,315.5C 723.453,309.071 724.12,302.404 721.5,295.5C 722.182,283.285 721.015,271.285 718,259.5C 718.338,248.863 716.838,238.53 713.5,228.5C 714.921,220.096 712.588,213.096 706.5,207.5C 705.277,204.726 703.777,202.059 702,199.5C 701.858,192.913 700.025,186.913 696.5,181.5C 696.206,178.246 694.873,175.579 692.5,173.5C 692.573,171.973 691.906,170.973 690.5,170.5C 690.573,168.973 689.906,167.973 688.5,167.5C 687.416,164.996 686.083,162.663 684.5,160.5C 684.573,158.973 683.906,157.973 682.5,157.5C 676.766,150.589 670.766,143.756 664.5,137C 661.623,136.044 658.956,134.711 656.5,133C 652.755,126.253 647.422,121.253 640.5,118C 638.874,115.372 636.874,113.039 634.5,111C 625.981,104.501 616.648,99.1679 606.5,95C 594.574,88.3665 582.574,81.6999 570.5,75C 551.885,69.2954 533.552,63.1287 515.5,56.5C 493.438,51.6632 471.105,50.1632 448.5,52C 440.911,53.2305 433.244,53.8972 425.5,54C 419.974,55.9536 414.307,57.287 408.5,58C 406.668,58.7485 405.001,59.7485 403.5,61C 393.333,62.2829 383.333,63.7829 373.5,65.5C 369.727,65.2633 366.06,65.7633 362.5,67C 358.025,69.6499 354.025,72.8166 350.5,76.5C 347.916,78.4725 344.916,79.4725 341.5,79.5C 338.911,79.461 336.911,80.461 335.5,82.5C 331.099,83.4056 327.099,85.0723 323.5,87.5C 320.669,88.0787 318.336,89.412 316.5,91.5C 314.77,92.0256 313.436,93.0256 312.5,94.5C 310.251,95.0798 308.585,96.4131 307.5,98.5C 303.494,101.508 299.494,104.508 295.5,107.5C 293.251,108.08 291.585,109.413 290.5,111.5C 287.473,114.527 284.473,117.527 281.5,120.5C 276.859,122.76 273.859,126.427 272.5,131.5C 270.301,134.565 268.634,137.898 267.5,141.5C 265.654,143.03 264.654,145.03 264.5,147.5C 262.685,151.623 260.685,155.623 258.5,159.5C 257.094,159.973 256.427,160.973 256.5,162.5C 255.449,163.222 254.782,164.222 254.5,165.5C 253.094,165.973 252.427,166.973 252.5,168.5C 251.449,169.222 250.782,170.222 250.5,171.5C 243.338,177.823 239.338,185.823 238.5,195.5C 237.673,200.651 237.173,205.984 237,211.5C 233.574,220.272 231.074,229.272 229.5,238.5C 227.75,242.183 227.083,246.183 227.5,250.5C 226.732,251.263 226.232,252.263 226,253.5C 225.501,259.157 225.334,264.824 225.5,270.5C 225.5,271.167 225.5,271.833 225.5,272.5C 224.732,273.263 224.232,274.263 224,275.5C 223.333,284.5 223.333,293.5 224,302.5C 224.232,303.737 224.732,304.737 225.5,305.5C 225.5,313.167 225.5,320.833 225.5,328.5C 225.334,334.842 225.5,341.175 226,347.5C 226.21,349.058 226.71,350.391 227.5,351.5C 230.217,369.068 232.384,386.734 234,404.5C 236.369,409.17 237.536,414.17 237.5,419.5C 232.173,418.836 226.84,418.169 221.5,417.5C 217.223,416.773 213.889,418.107 211.5,421.5C 209.526,423.428 208.026,425.761 207,428.5C 206.26,429.749 206.427,430.749 207.5,431.5C 212.658,441.796 215.491,452.796 216,464.5C 219.206,475.169 222.04,485.836 224.5,496.5C 225.483,500.09 226.817,503.423 228.5,506.5C 232.867,521.406 236.867,536.406 240.5,551.5C 240.337,553.857 240.503,556.19 241,558.5C 241.2,560.32 242.034,561.653 243.5,562.5C 247.19,566.349 251.357,569.683 256,572.5C 258.221,579.939 260.721,587.272 263.5,594.5C 264.199,599.272 265.866,603.605 268.5,607.5C 268.707,610.241 269.707,612.574 271.5,614.5C 276.85,625.681 282.683,636.681 289,647.5C 290.026,652.082 291.526,656.416 293.5,660.5C 293.5,670.833 293.5,681.167 293.5,691.5C 290.097,699.254 285.097,705.921 278.5,711.5C 277.094,711.973 276.427,712.973 276.5,714.5C 273.589,717.99 270.922,721.656 268.5,725.5C 267.094,725.973 266.427,726.973 266.5,728.5C 263.596,731.966 260.929,735.633 258.5,739.5C 257.094,739.973 256.427,740.973 256.5,742.5C 254.605,743.973 252.939,745.64 251.5,747.5C 246.5,751.833 241.833,756.5 237.5,761.5C 228.853,768.287 220.519,775.453 212.5,783C 203.334,785.701 194.334,788.534 185.5,791.5C 180.089,791.642 175.089,792.976 170.5,795.5C 139.093,806.02 108.426,818.186 78.5,832C 63.5101,836.608 48.5101,841.108 33.5,845.5C 31.8632,844.62 30.0299,843.954 28,843.5C 20.4837,846.943 12.3171,849.61 3.5,851.5C 2.16667,851.5 0.833333,851.5 -0.5,851.5C -0.5,567.5 -0.5,283.5 -0.5,-0.5 Z"/></g> <g><path style="opacity:1" fill="#000000" d="M 682.5,157.5 C 682.427,159.027 683.094,160.027 684.5,160.5C 686.083,162.663 687.416,164.996 688.5,167.5C 688.427,169.027 689.094,170.027 690.5,170.5C 691.906,170.973 692.573,171.973 692.5,173.5C 693.326,176.485 694.659,179.151 696.5,181.5C 700.025,186.913 701.858,192.913 702,199.5C 703.777,202.059 705.277,204.726 706.5,207.5C 710.23,214.109 712.563,221.109 713.5,228.5C 716.838,238.53 718.338,248.863 718,259.5C 721.015,271.285 722.182,283.285 721.5,295.5C 721.488,302.239 720.821,308.905 719.5,315.5C 718.833,319.833 718.167,324.167 717.5,328.5C 716.076,330.515 715.41,332.848 715.5,335.5C 714.435,352.606 712.435,369.606 709.5,386.5C 710.479,389.083 711.146,391.749 711.5,394.5C 708.921,401.362 705.921,408.029 702.5,414.5C 699.783,415.678 699.45,416.678 701.5,417.5C 700.627,419.886 699.127,421.886 697,423.5C 695.438,425.957 694.438,428.624 694,431.5C 694.119,445.896 692.119,459.896 688,473.5C 687.613,470.401 686.446,467.734 684.5,465.5C 684.784,463.585 684.451,461.919 683.5,460.5C 683.5,453.833 683.5,447.167 683.5,440.5C 685.234,422.601 684.234,404.934 680.5,387.5C 679.09,375.374 676.923,363.374 674,351.5C 668.375,336.587 663.042,321.587 658,306.5C 657.25,296.242 658.584,286.242 662,276.5C 664.528,246.406 654.361,221.572 631.5,202C 607.11,182.967 581.11,166.3 553.5,152C 540.438,145.544 526.772,143.544 512.5,146C 501.73,149.812 490.73,152.812 479.5,155C 454.715,158.255 430.048,162.255 405.5,167C 388.786,167.802 372.12,169.136 355.5,171C 345.507,172.882 336.507,176.882 328.5,183C 321.627,190.205 315.127,197.705 309,205.5C 297.279,220.887 285.946,236.554 275,252.5C 272.377,258.74 270.877,265.24 270.5,272C 271.508,279.817 271.675,287.651 271,295.5C 266.626,309.252 261.959,322.919 257,336.5C 255.127,342.03 253.961,347.697 253.5,353.5C 250.079,370.934 247.245,388.6 245,406.5C 244.333,441.5 244.333,476.5 245,511.5C 245.582,517.917 246.416,524.25 247.5,530.5C 248.705,547.964 254.705,563.464 265.5,577C 269.03,576.892 271.53,578.726 273,582.5C 275.091,581.5 276.757,582.167 278,584.5C 280.818,584.315 283.318,585.482 285.5,588C 287.833,588.667 290.167,588.667 292.5,588C 291.424,586.274 291.257,584.441 292,582.5C 292.333,582.833 292.667,583.167 293,583.5C 295.372,581.352 298.206,580.018 301.5,579.5C 302.906,580.668 304.072,580.335 305,578.5C 305.333,579.167 305.667,579.833 306,580.5C 306.667,579.167 307.333,579.167 308,580.5C 315.794,593.556 320.46,607.222 322,621.5C 325.894,635.377 333.06,647.21 343.5,657C 359.5,667 375.5,677 391.5,687C 408.829,695.998 426.829,703.331 445.5,709C 460.158,712.202 474.825,712.202 489.5,709C 502.416,706.604 515.083,703.271 527.5,699C 539.953,693.607 552.286,687.94 564.5,682C 581.36,677.381 597.694,671.381 613.5,664C 623.718,658.115 631.551,649.949 637,639.5C 637.583,641.002 638.416,642.335 639.5,643.5C 648.134,630.896 654.634,617.23 659,602.5C 658.737,607.5 658.07,612.5 657,617.5C 653.381,630.022 650.381,642.688 648,655.5C 647.333,661.5 647.333,667.5 648,673.5C 649.638,678.871 650.805,684.204 651.5,689.5C 651.953,693.027 653.453,696.027 656,698.5C 661.73,704.062 667.23,709.729 672.5,715.5C 672.427,717.027 673.094,718.027 674.5,718.5C 675.885,719.574 677.051,720.907 678,722.5C 684.233,737.423 692.399,751.09 702.5,763.5C 702.427,765.027 703.094,766.027 704.5,766.5C 711.689,774.523 719.355,782.023 727.5,789C 767.442,801.88 806.442,816.713 844.5,833.5C 845.287,835.104 846.62,835.771 848.5,835.5C 856.516,838.839 864.516,842.173 872.5,845.5C 874.426,847.293 876.759,848.293 879.5,848.5C 888.797,853.102 898.464,857.269 908.5,861C 910.134,861.494 911.801,861.66 913.5,861.5C 913.5,888.167 913.5,914.833 913.5,941.5C 905.838,939.171 898.504,936.004 891.5,932C 888.023,931.337 884.523,930.837 881,930.5C 876.512,931.333 872.012,931.5 867.5,931C 873.609,927.896 879.943,925.562 886.5,924C 880.199,922.194 873.865,922.194 867.5,924C 858.326,926.058 849.326,928.724 840.5,932C 791.585,953.527 741.251,970.86 689.5,984C 692.334,985.6 695.334,986.766 698.5,987.5C 699.874,989.967 699.207,991.801 696.5,993C 697.833,993.667 697.833,994.333 696.5,995C 698.5,995.667 700.5,996.333 702.5,997C 699.167,998.333 695.833,999.667 692.5,1001C 693.833,1001.67 695.167,1002.33 696.5,1003C 695.294,1005.71 696.294,1007.38 699.5,1008C 698.167,1008.33 696.833,1008.67 695.5,1009C 713.651,1010 731.818,1010.5 750,1010.5C 804.5,1010.32 859,1009.99 913.5,1009.5C 913.5,1010.17 913.5,1010.83 913.5,1011.5C 815.5,1011.5 717.5,1011.5 619.5,1011.5C 623.937,1005.95 626.77,999.62 628,992.5C 632.883,963.201 637.55,933.868 642,904.5C 649.97,869.289 657.303,833.956 664,798.5C 668.76,766.475 664.593,735.808 651.5,706.5C 651.598,704.447 650.931,702.78 649.5,701.5C 646.437,693.364 643.937,685.031 642,676.5C 642.009,665.107 642.676,653.773 644,642.5C 641.778,647.009 639.278,651.342 636.5,655.5C 636.709,656.086 637.043,656.586 637.5,657C 634.37,660.215 633.036,663.882 633.5,668C 632.084,670.835 630.417,673.502 628.5,676C 626.434,682.292 623.267,688.459 619,694.5C 603.119,707.383 586.952,719.883 570.5,732C 564.07,735.549 557.404,738.549 550.5,741C 518.684,747.121 487.351,755.121 456.5,765C 449.14,766.953 442.14,769.787 435.5,773.5C 434.614,774.325 434.281,775.325 434.5,776.5C 439.786,778.289 443.286,781.956 445,787.5C 447.733,792.316 446.9,796.149 442.5,799C 440.109,799.287 437.776,799.787 435.5,800.5C 429.557,797.612 423.724,794.612 418,791.5C 417.586,791.957 417.086,792.291 416.5,792.5C 408.78,789.587 400.78,788.254 392.5,788.5C 392.357,790.262 392.691,791.929 393.5,793.5C 392.998,794.521 392.332,794.688 391.5,794C 369.034,776.268 346.034,759.268 322.5,743C 318.033,739.535 313.867,735.702 310,731.5C 307.566,728.205 305.899,724.538 305,720.5C 305.012,712.023 304.012,703.69 302,695.5C 279.899,726.885 270.066,761.885 272.5,800.5C 272.354,815.063 273.354,829.397 275.5,843.5C 275.845,853.612 276.845,863.612 278.5,873.5C 281.354,900.587 283.354,927.587 284.5,954.5C 285.425,973.479 286.759,992.479 288.5,1011.5C 192.167,1011.5 95.8333,1011.5 -0.5,1011.5C -0.5,960.167 -0.5,908.833 -0.5,857.5C 10.9248,853.692 22.2581,849.692 33.5,845.5C 48.5101,841.108 63.5101,836.608 78.5,832C 108.426,818.186 139.093,806.02 170.5,795.5C 175.722,794.613 180.722,793.279 185.5,791.5C 194.334,788.534 203.334,785.701 212.5,783C 220.519,775.453 228.853,768.287 237.5,761.5C 243.167,757.833 247.833,753.167 251.5,747.5C 252.939,745.64 254.605,743.973 256.5,742.5C 257.906,742.027 258.573,741.027 258.5,739.5C 260.929,735.633 263.596,731.966 266.5,728.5C 267.906,728.027 268.573,727.027 268.5,725.5C 270.922,721.656 273.589,717.99 276.5,714.5C 277.906,714.027 278.573,713.027 278.5,711.5C 285.097,705.921 290.097,699.254 293.5,691.5C 298.678,681.191 298.678,670.857 293.5,660.5C 291.526,656.416 290.026,652.082 289,647.5C 282.683,636.681 276.85,625.681 271.5,614.5C 271.293,611.759 270.293,609.426 268.5,607.5C 267.404,602.868 265.737,598.534 263.5,594.5C 260.721,587.272 258.221,579.939 256,572.5C 251.357,569.683 247.19,566.349 243.5,562.5C 243.472,558.716 242.472,555.049 240.5,551.5C 236.867,536.406 232.867,521.406 228.5,506.5C 228.587,503.261 227.92,500.261 226.5,497.5C 225.833,497.167 225.167,496.833 224.5,496.5C 222.04,485.836 219.206,475.169 216,464.5C 215.491,452.796 212.658,441.796 207.5,431.5C 207.369,430.761 207.536,430.094 208,429.5C 211.772,430.274 215.605,430.94 219.5,431.5C 220.167,431.167 220.833,430.833 221.5,430.5C 218.304,427.155 214.971,424.155 211.5,421.5C 213.889,418.107 217.223,416.773 221.5,417.5C 226.84,418.169 232.173,418.836 237.5,419.5C 237.536,414.17 236.369,409.17 234,404.5C 232.384,386.734 230.217,369.068 227.5,351.5C 227.18,343.656 226.513,335.989 225.5,328.5C 225.5,320.833 225.5,313.167 225.5,305.5C 224.224,294.507 224.224,283.507 225.5,272.5C 225.5,271.833 225.5,271.167 225.5,270.5C 226.598,264.021 227.265,257.354 227.5,250.5C 228.482,246.684 229.149,242.684 229.5,238.5C 231.074,229.272 233.574,220.272 237,211.5C 237.173,205.984 237.673,200.651 238.5,195.5C 241.552,187 245.552,179 250.5,171.5C 250.782,170.222 251.449,169.222 252.5,168.5C 253.906,168.027 254.573,167.027 254.5,165.5C 254.782,164.222 255.449,163.222 256.5,162.5C 257.906,162.027 258.573,161.027 258.5,159.5C 260.685,155.623 262.685,151.623 264.5,147.5C 266.346,145.97 267.346,143.97 267.5,141.5C 268.634,137.898 270.301,134.565 272.5,131.5C 275.25,127.689 278.25,124.022 281.5,120.5C 284.473,117.527 287.473,114.527 290.5,111.5C 292.749,110.92 294.415,109.587 295.5,107.5C 299.494,104.508 303.494,101.508 307.5,98.5C 309.749,97.9202 311.415,96.5869 312.5,94.5C 313.436,93.0256 314.77,92.0256 316.5,91.5C 319.326,91.0023 321.66,89.6689 323.5,87.5C 327.099,85.0723 331.099,83.4056 335.5,82.5C 337.819,82.0075 339.819,81.0075 341.5,79.5C 344.916,79.4725 347.916,78.4725 350.5,76.5C 351.552,76.6495 352.552,76.4828 353.5,76C 359.261,70.6211 365.927,67.1211 373.5,65.5C 383.333,63.7829 393.333,62.2829 403.5,61C 405.001,59.7485 406.668,58.7485 408.5,58C 414.307,57.287 419.974,55.9536 425.5,54C 433.244,53.8972 440.911,53.2305 448.5,52C 471.105,50.1632 493.438,51.6632 515.5,56.5C 533.552,63.1287 551.885,69.2954 570.5,75C 582.574,81.6999 594.574,88.3665 606.5,95C 616.648,99.1679 625.981,104.501 634.5,111C 636.874,113.039 638.874,115.372 640.5,118C 647.422,121.253 652.755,126.253 656.5,133C 658.956,134.711 661.623,136.044 664.5,137C 670.766,143.756 676.766,150.589 682.5,157.5 Z"/></g> <g><path style="opacity:1" fill="#6c6c6c" d="M 373.5,65.5 C 365.927,67.1211 359.261,70.6211 353.5,76C 352.552,76.4828 351.552,76.6495 350.5,76.5C 354.025,72.8166 358.025,69.6499 362.5,67C 366.06,65.7633 369.727,65.2633 373.5,65.5 Z"/></g> <g><path style="opacity:1" fill="#707070" d="M 341.5,79.5 C 339.819,81.0075 337.819,82.0075 335.5,82.5C 336.911,80.461 338.911,79.461 341.5,79.5 Z"/></g> <g><path style="opacity:1" fill="#707070" d="M 323.5,87.5 C 321.66,89.6689 319.326,91.0023 316.5,91.5C 318.336,89.412 320.669,88.0787 323.5,87.5 Z"/></g> <g><path style="opacity:1" fill="#747474" d="M 312.5,94.5 C 311.415,96.5869 309.749,97.9202 307.5,98.5C 308.585,96.4131 310.251,95.0798 312.5,94.5 Z"/></g> <g><path style="opacity:1" fill="#747474" d="M 295.5,107.5 C 294.415,109.587 292.749,110.92 290.5,111.5C 291.585,109.413 293.251,108.08 295.5,107.5 Z"/></g> <g><path style="opacity:1" fill="#6e6e6e" d="M 281.5,120.5 C 278.25,124.022 275.25,127.689 272.5,131.5C 273.859,126.427 276.859,122.76 281.5,120.5 Z"/></g> <g><path style="opacity:1" fill="#7b7b7b" d="M 267.5,141.5 C 267.346,143.97 266.346,145.97 264.5,147.5C 264.654,145.03 265.654,143.03 267.5,141.5 Z"/></g> <g><path style="opacity:1" fill="#606060" d="M 680.5,387.5 C 677.544,374.579 674.377,361.579 671,348.5C 667.529,338.885 662.529,330.218 656,322.5C 649.501,312.853 646.335,302.186 646.5,290.5C 646.84,282.45 647.673,274.45 649,266.5C 650.141,256.121 649.308,245.955 646.5,236C 647.041,230.916 645.874,226.082 643,221.5C 638.577,215.072 633.41,209.239 627.5,204C 607.284,188.147 585.284,175.147 561.5,165C 553.938,161.984 546.105,160.151 538,159.5C 525.065,162.546 512.232,166.046 499.5,170C 475.842,171.743 452.175,173.41 428.5,175C 410.239,177.894 391.905,180.228 373.5,182C 346.801,185.693 329.634,200.527 322,226.5C 319.454,235.186 317.62,244.019 316.5,253C 316.602,257.702 318.435,261.535 322,264.5C 326.761,263.392 330.761,261.059 334,257.5C 337.148,261.165 338.815,265.499 339,270.5C 340.667,272.167 342.333,273.833 344,275.5C 347.234,281.469 350.067,287.636 352.5,294C 351.815,296.54 350.981,299.04 350,301.5C 349.667,301.167 349.333,300.833 349,300.5C 346.685,304.817 343.185,307.65 338.5,309C 334.114,312.976 329.114,316.976 323.5,321C 336.17,325.747 349.503,327.247 363.5,325.5C 379.061,324.703 393.728,327.87 407.5,335C 430.04,346.889 441.207,365.723 441,391.5C 441.758,412.674 439.592,433.507 434.5,454C 434.833,454.333 435.167,454.667 435.5,455C 434.833,460.333 434.167,465.667 433.5,471C 433.349,478.873 435.849,486.04 441,492.5C 447.41,498.106 454.91,500.273 463.5,499C 476.331,490.777 490.331,485.61 505.5,483.5C 506.758,480.5 508.758,479.5 511.5,480.5C 512.129,494.088 506.462,503.921 494.5,510C 487.081,513.917 479.414,517.25 471.5,520C 459.087,530.821 444.921,533.987 429,529.5C 414.491,528.414 402.157,522.414 392,511.5C 386.821,503.942 385.154,495.609 387,486.5C 390.716,476.065 394.716,465.732 399,455.5C 401.786,441.902 404.953,428.402 408.5,415C 407.77,408.872 404.77,404.205 399.5,401C 394.728,398.28 389.728,396.113 384.5,394.5C 385.661,392.776 385.495,391.11 384,389.5C 381.422,390.691 379.255,392.357 377.5,394.5C 379.936,390.425 380.603,386.092 379.5,381.5C 388.405,385.952 397.405,390.452 406.5,395C 408.396,397.068 410.396,398.901 412.5,400.5C 414.173,406.738 414.673,413.071 414,419.5C 408.533,440.71 401.533,461.376 393,481.5C 388.039,496.606 392.539,508.106 406.5,516C 420.765,524.649 436.098,527.649 452.5,525C 454.5,524 456.5,523 458.5,522C 465.491,516.342 472.157,510.342 478.5,504C 485.128,500.592 492.128,498.259 499.5,497C 502.993,495.522 503.326,493.522 500.5,491C 496.095,490.304 491.761,490.637 487.5,492C 479.667,496.416 472,501.082 464.5,506C 456.195,506.188 448.861,503.521 442.5,498C 434.909,490.297 429.242,481.463 425.5,471.5C 426.748,463.179 427.915,454.846 429,446.5C 437.052,422.842 438.385,398.842 433,374.5C 428.154,359.666 418.987,348.499 405.5,341C 392.382,332.637 378.049,329.137 362.5,330.5C 350.508,331.172 338.508,331.672 326.5,332C 314.615,334.864 305.115,341.364 298,351.5C 291.672,362.762 287.172,374.429 284.5,386.5C 285.167,387.167 285.833,387.833 286.5,388.5C 285.674,389.451 285.508,390.451 286,391.5C 289.712,394.211 292.712,397.544 295,401.5C 295.667,400.167 296.333,400.167 297,401.5C 299.34,411.519 302.673,421.186 307,430.5C 308.243,432.833 309.909,433.5 312,432.5C 314.607,424.72 316.274,416.72 317,408.5C 317.374,406.509 318.207,404.842 319.5,403.5C 319.073,406.376 318.406,409.209 317.5,412C 318.34,413.171 319.173,414.338 320,415.5C 322,410.999 323.5,406.332 324.5,401.5C 324.547,399.962 323.88,398.962 322.5,398.5C 325.921,394.113 330.255,392.613 335.5,394C 335.799,390.368 337.632,387.868 341,386.5C 341.772,386.645 342.439,386.978 343,387.5C 343.638,390.764 344.804,393.764 346.5,396.5C 344.887,396.056 343.72,395.056 343,393.5C 341.865,393.727 340.698,394.06 339.5,394.5C 339.977,395.478 340.643,396.311 341.5,397C 341.167,397.333 340.833,397.667 340.5,398C 345.303,402.272 350.969,404.605 357.5,405C 356.584,405.374 355.75,405.874 355,406.5C 352,406.167 349,405.833 346,405.5C 344.004,405.996 342.337,406.996 341,408.5C 340.667,407.833 340.333,407.167 340,406.5C 337.82,412.316 339.654,416.483 345.5,419C 350.411,420.492 355.411,420.826 360.5,420C 371.177,417.83 381.844,415.664 392.5,413.5C 392.833,413.833 393.167,414.167 393.5,414.5C 390.652,417.093 387.319,418.926 383.5,420C 373.511,423.33 363.511,426.663 353.5,430C 345.744,430.875 338.078,432.208 330.5,434C 327.267,436.282 323.767,439.115 320,442.5C 317.741,445.785 315.574,449.118 313.5,452.5C 314.093,454.382 314.76,456.215 315.5,458C 313.109,458.691 313.109,459.691 315.5,461C 315.167,461.333 314.833,461.667 314.5,462C 316.726,465.792 319.726,469.459 323.5,473C 323.523,475.432 323.19,477.932 322.5,480.5C 325.097,505.766 326.097,531.099 325.5,556.5C 325.771,559.749 326.437,562.916 327.5,566C 326.544,571.488 326.544,577.154 327.5,583C 327.406,585.954 326.906,586.121 326,583.5C 325.5,584 325,584.5 324.5,585C 328.823,598.832 333.323,612.665 338,626.5C 341.371,632.306 345.537,637.472 350.5,642C 355.459,643.944 360.292,646.11 365,648.5C 365.216,646.616 365.883,644.949 367,643.5C 369.188,646.899 372.021,649.565 375.5,651.5C 377.575,652.762 379.575,652.595 381.5,651C 379.395,649.807 377.728,648.14 376.5,646C 376.833,645.667 377.167,645.333 377.5,645C 373.813,640.806 371.98,635.973 372,630.5C 372.701,632.762 373.868,633.762 375.5,633.5C 371.727,627.13 370.227,620.464 371,613.5C 372.608,614.433 373.441,613.767 373.5,611.5C 372.988,609.116 372.321,606.783 371.5,604.5C 371.709,603.914 372.043,603.414 372.5,603C 368.273,595.365 363.439,588.198 358,581.5C 357.965,572.975 358.965,564.308 361,555.5C 361.317,557.301 361.984,557.634 363,556.5C 364.874,563.668 367.207,570.668 370,577.5C 371.899,573.524 371.732,569.69 369.5,566C 370.038,563.898 371.038,563.065 372.5,563.5C 371.515,561.902 371.349,560.235 372,558.5C 372.837,560.844 374.171,562.844 376,564.5C 374.75,561.722 374.084,558.722 374,555.5C 375.914,560.335 378.581,564.669 382,568.5C 383.416,566.589 384.25,564.422 384.5,562C 382.945,554.541 383.611,554.041 386.5,560.5C 387.192,559.975 387.692,559.308 388,558.5C 388.333,559.833 388.667,561.167 389,562.5C 389.333,562.167 389.667,561.833 390,561.5C 390.492,562.549 390.326,563.549 389.5,564.5C 399.022,565.31 408.355,564.143 417.5,561C 421.167,560.333 424.833,560.333 428.5,561C 439.284,565.486 450.45,568.32 462,569.5C 473.797,567.044 485.63,567.211 497.5,570C 502.363,572.066 507.363,573.732 512.5,575C 522.632,576.355 532.632,578.355 542.5,581C 544.156,582.829 546.156,584.163 548.5,585C 547.833,585.333 547.167,585.667 546.5,586C 530.167,586.667 513.833,586.667 497.5,586C 480.409,582.488 463.409,582.988 446.5,587.5C 443.536,586.528 440.536,586.362 437.5,587C 437.043,587.414 436.709,587.914 436.5,588.5C 437.167,588.833 437.833,589.167 438.5,589.5C 436.389,590.949 434.056,591.949 431.5,592.5C 430.713,593.242 430.047,594.075 429.5,595C 430.747,596.458 430.747,597.958 429.5,599.5C 430.73,603.395 433.397,605.395 437.5,605.5C 458.012,600.529 475.012,605.362 488.5,620C 485.167,621 481.833,622 478.5,623C 479.973,623.71 480.64,624.876 480.5,626.5C 475.821,626.334 471.155,626.501 466.5,627C 469.167,627.667 471.833,628.333 474.5,629C 454.461,632.329 435.128,629.829 416.5,621.5C 416.167,621.667 415.833,621.833 415.5,622C 417.061,622.941 418.395,624.108 419.5,625.5C 418.277,626.614 416.944,626.781 415.5,626C 411.385,623.552 407.552,620.719 404,617.5C 399.032,610.39 394.199,603.223 389.5,596C 389.667,595.5 389.833,595 390,594.5C 393.449,596.097 396.949,596.43 400.5,595.5C 401.5,596.833 402.5,598.167 403.5,599.5C 407.472,600.949 410.806,603.449 413.5,607C 415.509,606.406 417.509,606.573 419.5,607.5C 420.308,607.192 420.975,606.692 421.5,606C 418.13,603.303 416.796,599.803 417.5,595.5C 413.181,594.965 408.848,594.465 404.5,594C 403.167,593.333 403.167,592.667 404.5,592C 402.444,591.689 400.444,591.189 398.5,590.5C 396.898,591.55 396.065,590.883 396,588.5C 394.413,589.727 393.079,589.394 392,587.5C 388.873,587.917 385.54,587.917 382,587.5C 379.167,587.833 376.333,588.167 373.5,588.5C 373.291,589.086 372.957,589.586 372.5,590C 376.284,591.947 380.284,593.28 384.5,594C 385.252,594.671 385.586,595.504 385.5,596.5C 384.175,597.953 383.342,597.619 383,595.5C 382.667,595.833 382.333,596.167 382,596.5C 377.856,594.244 373.689,592.411 369.5,591C 372.535,594.697 374.869,599.197 376.5,604.5C 375.653,606.061 375.986,607.561 377.5,609C 377.309,613.167 376.642,617.5 375.5,622C 377.263,623.654 377.596,625.487 376.5,627.5C 376.846,628.696 377.346,628.696 378,627.5C 378.36,629.421 379.194,631.088 380.5,632.5C 380.833,632.167 381.167,631.833 381.5,631.5C 380.152,628.317 379.819,625.151 380.5,622C 379.74,620.559 379.074,619.059 378.5,617.5C 379.806,616.088 380.64,614.421 381,612.5C 383.723,615.557 386.056,618.89 388,622.5C 387.948,620.089 387.615,617.756 387,615.5C 388.925,616.88 390.759,618.38 392.5,620C 391.346,620.914 391.513,621.747 393,622.5C 395.292,621.399 396.792,622.232 397.5,625C 394.046,625.293 393.712,626.626 396.5,629C 394.862,628.758 393.362,627.925 392,626.5C 391.508,627.549 391.674,628.549 392.5,629.5C 391.224,630.645 389.891,630.645 388.5,629.5C 387.749,630.376 387.249,631.376 387,632.5C 386.138,630.913 385.471,629.246 385,627.5C 384.346,626.304 383.846,626.304 383.5,627.5C 384.123,630.167 385.123,632.667 386.5,635C 386.167,635.333 385.833,635.667 385.5,636C 386.708,638.25 388.041,640.417 389.5,642.5C 389.023,643.478 388.357,644.311 387.5,645C 391.223,646.259 392.223,648.592 390.5,652C 401.205,674.035 417.871,690.035 440.5,700C 460.792,705.904 481.125,705.904 501.5,700C 513.72,696.723 525.387,692.057 536.5,686C 547.5,679 558.5,672 569.5,665C 582.128,659.571 594.461,653.571 606.5,647C 619.295,637.865 628.795,626.032 635,611.5C 640.292,598.957 644.792,586.124 648.5,573C 650.685,571.147 652.518,568.98 654,566.5C 655.666,567.34 655.833,566.84 654.5,565C 655,564.5 655.5,564 656,563.5C 656.584,567.7 656.917,571.7 657,575.5C 657.75,574.874 658.584,574.374 659.5,574C 659.167,573.667 658.833,573.333 658.5,573C 659.967,571.902 660.801,570.402 661,568.5C 662.085,558.155 663.252,547.821 664.5,537.5C 665.808,535.359 667.308,533.359 669,531.5C 669.302,519.081 670.302,506.748 672,494.5C 672.333,495.167 672.667,495.833 673,496.5C 674.07,492.15 675.236,488.15 676.5,484.5C 676.291,483.914 675.957,483.414 675.5,483C 676.305,478.251 676.805,473.418 677,468.5C 679.256,477.645 678.756,486.645 675.5,495.5C 675.833,496.167 676.167,496.833 676.5,497.5C 675.248,504.11 674.748,510.777 675,517.5C 675.556,515.405 676.056,515.238 676.5,517C 676.05,518.285 675.383,519.452 674.5,520.5C 675.752,522.001 676.752,523.668 677.5,525.5C 678.086,525.291 678.586,524.957 679,524.5C 679.333,526.167 679.667,527.833 680,529.5C 680.75,525.581 682.083,521.915 684,518.5C 684.495,520.473 684.662,522.473 684.5,524.5C 684.182,531.346 683.515,538.013 682.5,544.5C 681.518,548.316 680.851,552.316 680.5,556.5C 684.131,557.412 687.797,557.579 691.5,557C 692.931,556.535 694.097,555.701 695,554.5C 695.399,554.728 695.565,555.062 695.5,555.5C 694.307,558.938 691.974,561.271 688.5,562.5C 685.155,564.217 681.489,564.884 677.5,564.5C 676.504,564.414 675.671,564.748 675,565.5C 674.014,567.778 673.18,570.111 672.5,572.5C 672.846,573.696 673.346,573.696 674,572.5C 674.464,573.094 674.631,573.761 674.5,574.5C 670.969,593.641 665.136,611.974 657,629.5C 655.934,633.465 655.101,637.465 654.5,641.5C 652.299,648.71 650.965,656.21 650.5,664C 651.364,669.817 652.03,675.65 652.5,681.5C 652.167,684.167 651.833,686.833 651.5,689.5C 650.805,684.204 649.638,678.871 648,673.5C 647.333,667.5 647.333,661.5 648,655.5C 650.381,642.688 653.381,630.022 657,617.5C 658.07,612.5 658.737,607.5 659,602.5C 654.634,617.23 648.134,630.896 639.5,643.5C 638.416,642.335 637.583,641.002 637,639.5C 631.551,649.949 623.718,658.115 613.5,664C 597.694,671.381 581.36,677.381 564.5,682C 552.286,687.94 539.953,693.607 527.5,699C 515.083,703.271 502.416,706.604 489.5,709C 474.825,712.202 460.158,712.202 445.5,709C 426.829,703.331 408.829,695.998 391.5,687C 375.5,677 359.5,667 343.5,657C 333.06,647.21 325.894,635.377 322,621.5C 320.46,607.222 315.794,593.556 308,580.5C 307.333,579.167 306.667,579.167 306,580.5C 305.667,579.833 305.333,579.167 305,578.5C 304.072,580.335 302.906,580.668 301.5,579.5C 298.206,580.018 295.372,581.352 293,583.5C 292.667,583.167 292.333,582.833 292,582.5C 291.257,584.441 291.424,586.274 292.5,588C 290.167,588.667 287.833,588.667 285.5,588C 283.318,585.482 280.818,584.315 278,584.5C 276.757,582.167 275.091,581.5 273,582.5C 271.53,578.726 269.03,576.892 265.5,577C 254.705,563.464 248.705,547.964 247.5,530.5C 249.13,532.026 249.963,534.026 250,536.5C 250.333,535.833 250.667,535.167 251,534.5C 251.333,535.833 251.667,537.167 252,538.5C 252.333,538.167 252.667,537.833 253,537.5C 253.003,540.716 254.169,543.383 256.5,545.5C 255.182,547.912 255.349,550.246 257,552.5C 257.29,550.048 257.956,547.715 259,545.5C 260.133,543.789 261.633,543.289 263.5,544C 258.497,548.158 257.164,553.325 259.5,559.5C 262.844,556.308 266.844,553.808 271.5,552C 274.442,548.546 276.609,545.046 278,541.5C 279.309,543.686 279.476,545.853 278.5,548C 280.605,549.335 281.271,551.002 280.5,553C 282.224,557.051 283.724,561.218 285,565.5C 286.886,559.7 290.22,555.033 295,551.5C 303.142,539.177 307.142,525.51 307,510.5C 307.667,503.5 307.667,496.5 307,489.5C 306.085,488.672 305.419,487.672 305,486.5C 301.36,496.392 298.027,506.392 295,516.5C 292.2,521.119 289.7,525.786 287.5,530.5C 286.167,530.5 284.833,530.5 283.5,530.5C 283.762,531.978 283.429,533.311 282.5,534.5C 282.167,534.333 281.833,534.167 281.5,534C 280.083,531.017 279.25,527.85 279,524.5C 277.951,525.517 276.784,525.684 275.5,525C 277.305,524.028 278.972,522.861 280.5,521.5C 280.023,520.522 279.357,519.689 278.5,519C 279.456,516.581 279.456,514.081 278.5,511.5C 279.93,503.969 280.93,496.469 281.5,489C 280.47,486.602 280.804,484.269 282.5,482C 282.239,478.74 282.239,475.406 282.5,472C 278.769,459.881 274.769,447.881 270.5,436C 271.896,432.916 271.229,430.249 268.5,428C 270.147,425.804 269.813,423.971 267.5,422.5C 267.709,421.914 268.043,421.414 268.5,421C 266.683,417.3 266.349,413.8 267.5,410.5C 267,409.5 266.5,408.5 266,407.5C 265.333,400.167 265.333,392.833 266,385.5C 266.333,385.167 266.667,384.833 267,384.5C 267.333,387.167 267.667,389.833 268,392.5C 268.232,388.445 268.732,384.445 269.5,380.5C 269.291,379.914 268.957,379.414 268.5,379C 269.578,378.326 270.245,377.326 270.5,376C 271.193,370.651 272.359,365.484 274,360.5C 276.895,368.297 278.228,367.63 278,358.5C 278.166,362.511 279,363.011 280.5,360C 279.795,353.711 279.128,347.378 278.5,341C 280.016,337.51 281.182,337.677 282,341.5C 282.013,336.727 281.18,332.06 279.5,327.5C 281.348,323.173 282.015,318.84 281.5,314.5C 281.782,311.869 282.449,309.369 283.5,307C 282.809,305.933 282.309,304.766 282,303.5C 281.13,307.056 278.963,308.556 275.5,308C 276.451,307.282 276.617,306.449 276,305.5C 265.495,320.173 257.995,336.173 253.5,353.5C 253.961,347.697 255.127,342.03 257,336.5C 261.959,322.919 266.626,309.252 271,295.5C 271.675,287.651 271.508,279.817 270.5,272C 270.877,265.24 272.377,258.74 275,252.5C 285.946,236.554 297.279,220.887 309,205.5C 315.127,197.705 321.627,190.205 328.5,183C 336.507,176.882 345.507,172.882 355.5,171C 372.12,169.136 388.786,167.802 405.5,167C 430.048,162.255 454.715,158.255 479.5,155C 490.73,152.812 501.73,149.812 512.5,146C 526.772,143.544 540.438,145.544 553.5,152C 581.11,166.3 607.11,182.967 631.5,202C 654.361,221.572 664.528,246.406 662,276.5C 658.584,286.242 657.25,296.242 658,306.5C 663.042,321.587 668.375,336.587 674,351.5C 676.923,363.374 679.09,375.374 680.5,387.5 Z"/></g> <g><path style="opacity:1" fill="#787878" d="M 682.5,157.5 C 683.906,157.973 684.573,158.973 684.5,160.5C 683.094,160.027 682.427,159.027 682.5,157.5 Z"/></g> <g><path style="opacity:1" fill="#9e9e9e" d="M 680.5,387.5 C 684.234,404.934 685.234,422.601 683.5,440.5C 681.575,447.243 681.575,453.91 683.5,460.5C 684.451,461.919 684.784,463.585 684.5,465.5C 685.348,470.883 686.515,476.217 688,481.5C 690.766,475.518 692.433,469.185 693,462.5C 695.988,456.515 700.321,451.848 706,448.5C 706.414,448.957 706.914,449.291 707.5,449.5C 708.767,452.048 709.6,454.714 710,457.5C 711.654,454.879 713.487,452.379 715.5,450C 718.903,449.422 722.07,448.255 725,446.5C 725.414,446.957 725.914,447.291 726.5,447.5C 729.094,446.408 731.261,444.741 733,442.5C 733.009,448.301 731.509,453.634 728.5,458.5C 729.263,455.859 729.43,453.192 729,450.5C 725.501,454.827 722.501,459.494 720,464.5C 720.333,460.833 720.667,457.167 721,453.5C 720.667,453.167 720.333,452.833 720,452.5C 718.667,453.833 717.333,455.167 716,456.5C 713.486,463.76 711.486,471.094 710,478.5C 707.73,473.356 706.063,468.022 705,462.5C 701.949,459.626 699.282,459.959 697,463.5C 695.561,469.125 694.228,474.792 693,480.5C 691.658,483.456 689.992,485.456 688,486.5C 686.271,499.268 685.104,511.935 684.5,524.5C 684.662,522.473 684.495,520.473 684,518.5C 682.083,521.915 680.75,525.581 680,529.5C 679.667,527.833 679.333,526.167 679,524.5C 678.586,524.957 678.086,525.291 677.5,525.5C 676.752,523.668 675.752,522.001 674.5,520.5C 675.383,519.452 676.05,518.285 676.5,517C 676.056,515.238 675.556,515.405 675,517.5C 674.748,510.777 675.248,504.11 676.5,497.5C 676.167,496.833 675.833,496.167 675.5,495.5C 678.756,486.645 679.256,477.645 677,468.5C 676.805,473.418 676.305,478.251 675.5,483C 675.957,483.414 676.291,483.914 676.5,484.5C 675.236,488.15 674.07,492.15 673,496.5C 672.667,495.833 672.333,495.167 672,494.5C 670.302,506.748 669.302,519.081 669,531.5C 667.308,533.359 665.808,535.359 664.5,537.5C 663.252,547.821 662.085,558.155 661,568.5C 660.801,570.402 659.967,571.902 658.5,573C 658.833,573.333 659.167,573.667 659.5,574C 658.584,574.374 657.75,574.874 657,575.5C 656.917,571.7 656.584,567.7 656,563.5C 655.5,564 655,564.5 654.5,565C 655.833,566.84 655.666,567.34 654,566.5C 652.518,568.98 650.685,571.147 648.5,573C 644.792,586.124 640.292,598.957 635,611.5C 628.795,626.032 619.295,637.865 606.5,647C 594.461,653.571 582.128,659.571 569.5,665C 558.5,672 547.5,679 536.5,686C 525.387,692.057 513.72,696.723 501.5,700C 481.125,705.904 460.792,705.904 440.5,700C 417.871,690.035 401.205,674.035 390.5,652C 392.223,648.592 391.223,646.259 387.5,645C 388.357,644.311 389.023,643.478 389.5,642.5C 388.041,640.417 386.708,638.25 385.5,636C 385.833,635.667 386.167,635.333 386.5,635C 385.123,632.667 384.123,630.167 383.5,627.5C 383.846,626.304 384.346,626.304 385,627.5C 385.471,629.246 386.138,630.913 387,632.5C 387.249,631.376 387.749,630.376 388.5,629.5C 389.891,630.645 391.224,630.645 392.5,629.5C 391.674,628.549 391.508,627.549 392,626.5C 393.362,627.925 394.862,628.758 396.5,629C 393.712,626.626 394.046,625.293 397.5,625C 396.792,622.232 395.292,621.399 393,622.5C 391.513,621.747 391.346,620.914 392.5,620C 390.759,618.38 388.925,616.88 387,615.5C 387.615,617.756 387.948,620.089 388,622.5C 386.056,618.89 383.723,615.557 381,612.5C 380.64,614.421 379.806,616.088 378.5,617.5C 379.074,619.059 379.74,620.559 380.5,622C 379.819,625.151 380.152,628.317 381.5,631.5C 381.167,631.833 380.833,632.167 380.5,632.5C 379.194,631.088 378.36,629.421 378,627.5C 377.346,628.696 376.846,628.696 376.5,627.5C 377.596,625.487 377.263,623.654 375.5,622C 376.642,617.5 377.309,613.167 377.5,609C 375.986,607.561 375.653,606.061 376.5,604.5C 374.869,599.197 372.535,594.697 369.5,591C 373.689,592.411 377.856,594.244 382,596.5C 382.333,596.167 382.667,595.833 383,595.5C 383.342,597.619 384.175,597.953 385.5,596.5C 385.586,595.504 385.252,594.671 384.5,594C 380.284,593.28 376.284,591.947 372.5,590C 372.957,589.586 373.291,589.086 373.5,588.5C 376.333,588.167 379.167,587.833 382,587.5C 385.54,587.917 388.873,587.917 392,587.5C 393.079,589.394 394.413,589.727 396,588.5C 396.065,590.883 396.898,591.55 398.5,590.5C 400.444,591.189 402.444,591.689 404.5,592C 403.167,592.667 403.167,593.333 404.5,594C 408.848,594.465 413.181,594.965 417.5,595.5C 416.796,599.803 418.13,603.303 421.5,606C 420.975,606.692 420.308,607.192 419.5,607.5C 417.509,606.573 415.509,606.406 413.5,607C 410.806,603.449 407.472,600.949 403.5,599.5C 402.5,598.167 401.5,596.833 400.5,595.5C 396.949,596.43 393.449,596.097 390,594.5C 389.833,595 389.667,595.5 389.5,596C 394.199,603.223 399.032,610.39 404,617.5C 407.552,620.719 411.385,623.552 415.5,626C 416.944,626.781 418.277,626.614 419.5,625.5C 418.395,624.108 417.061,622.941 415.5,622C 415.833,621.833 416.167,621.667 416.5,621.5C 435.128,629.829 454.461,632.329 474.5,629C 471.833,628.333 469.167,627.667 466.5,627C 471.155,626.501 475.821,626.334 480.5,626.5C 480.64,624.876 479.973,623.71 478.5,623C 481.833,622 485.167,621 488.5,620C 475.012,605.362 458.012,600.529 437.5,605.5C 433.397,605.395 430.73,603.395 429.5,599.5C 430.747,597.958 430.747,596.458 429.5,595C 430.047,594.075 430.713,593.242 431.5,592.5C 434.056,591.949 436.389,590.949 438.5,589.5C 437.833,589.167 437.167,588.833 436.5,588.5C 436.709,587.914 437.043,587.414 437.5,587C 440.536,586.362 443.536,586.528 446.5,587.5C 463.409,582.988 480.409,582.488 497.5,586C 513.833,586.667 530.167,586.667 546.5,586C 547.167,585.667 547.833,585.333 548.5,585C 546.156,584.163 544.156,582.829 542.5,581C 532.632,578.355 522.632,576.355 512.5,575C 507.363,573.732 502.363,572.066 497.5,570C 485.63,567.211 473.797,567.044 462,569.5C 450.45,568.32 439.284,565.486 428.5,561C 424.833,560.333 421.167,560.333 417.5,561C 408.355,564.143 399.022,565.31 389.5,564.5C 390.326,563.549 390.492,562.549 390,561.5C 389.667,561.833 389.333,562.167 389,562.5C 388.667,561.167 388.333,559.833 388,558.5C 387.692,559.308 387.192,559.975 386.5,560.5C 383.611,554.041 382.945,554.541 384.5,562C 384.25,564.422 383.416,566.589 382,568.5C 378.581,564.669 375.914,560.335 374,555.5C 374.084,558.722 374.75,561.722 376,564.5C 374.171,562.844 372.837,560.844 372,558.5C 371.349,560.235 371.515,561.902 372.5,563.5C 371.038,563.065 370.038,563.898 369.5,566C 371.732,569.69 371.899,573.524 370,577.5C 367.207,570.668 364.874,563.668 363,556.5C 361.984,557.634 361.317,557.301 361,555.5C 358.965,564.308 357.965,572.975 358,581.5C 363.439,588.198 368.273,595.365 372.5,603C 372.043,603.414 371.709,603.914 371.5,604.5C 372.321,606.783 372.988,609.116 373.5,611.5C 373.441,613.767 372.608,614.433 371,613.5C 370.227,620.464 371.727,627.13 375.5,633.5C 373.868,633.762 372.701,632.762 372,630.5C 371.98,635.973 373.813,640.806 377.5,645C 377.167,645.333 376.833,645.667 376.5,646C 377.728,648.14 379.395,649.807 381.5,651C 379.575,652.595 377.575,652.762 375.5,651.5C 372.021,649.565 369.188,646.899 367,643.5C 365.883,644.949 365.216,646.616 365,648.5C 360.292,646.11 355.459,643.944 350.5,642C 345.537,637.472 341.371,632.306 338,626.5C 333.323,612.665 328.823,598.832 324.5,585C 325,584.5 325.5,584 326,583.5C 326.906,586.121 327.406,585.954 327.5,583C 326.544,577.154 326.544,571.488 327.5,566C 326.437,562.916 325.771,559.749 325.5,556.5C 326.097,531.099 325.097,505.766 322.5,480.5C 323.19,477.932 323.523,475.432 323.5,473C 319.726,469.459 316.726,465.792 314.5,462C 314.833,461.667 315.167,461.333 315.5,461C 313.109,459.691 313.109,458.691 315.5,458C 314.76,456.215 314.093,454.382 313.5,452.5C 315.574,449.118 317.741,445.785 320,442.5C 323.767,439.115 327.267,436.282 330.5,434C 338.078,432.208 345.744,430.875 353.5,430C 363.511,426.663 373.511,423.33 383.5,420C 387.319,418.926 390.652,417.093 393.5,414.5C 393.167,414.167 392.833,413.833 392.5,413.5C 381.844,415.664 371.177,417.83 360.5,420C 355.411,420.826 350.411,420.492 345.5,419C 339.654,416.483 337.82,412.316 340,406.5C 340.333,407.167 340.667,407.833 341,408.5C 342.337,406.996 344.004,405.996 346,405.5C 349,405.833 352,406.167 355,406.5C 355.75,405.874 356.584,405.374 357.5,405C 350.969,404.605 345.303,402.272 340.5,398C 340.833,397.667 341.167,397.333 341.5,397C 340.643,396.311 339.977,395.478 339.5,394.5C 340.698,394.06 341.865,393.727 343,393.5C 343.72,395.056 344.887,396.056 346.5,396.5C 349.712,397.804 353.045,398.804 356.5,399.5C 363.704,398.616 370.704,396.949 377.5,394.5C 379.255,392.357 381.422,390.691 384,389.5C 385.495,391.11 385.661,392.776 384.5,394.5C 389.728,396.113 394.728,398.28 399.5,401C 404.77,404.205 407.77,408.872 408.5,415C 404.953,428.402 401.786,441.902 399,455.5C 394.716,465.732 390.716,476.065 387,486.5C 385.154,495.609 386.821,503.942 392,511.5C 402.157,522.414 414.491,528.414 429,529.5C 444.921,533.987 459.087,530.821 471.5,520C 479.414,517.25 487.081,513.917 494.5,510C 506.462,503.921 512.129,494.088 511.5,480.5C 508.758,479.5 506.758,480.5 505.5,483.5C 490.331,485.61 476.331,490.777 463.5,499C 454.91,500.273 447.41,498.106 441,492.5C 435.849,486.04 433.349,478.873 433.5,471C 434.167,465.667 434.833,460.333 435.5,455C 435.167,454.667 434.833,454.333 434.5,454C 439.592,433.507 441.758,412.674 441,391.5C 441.207,365.723 430.04,346.889 407.5,335C 393.728,327.87 379.061,324.703 363.5,325.5C 349.503,327.247 336.17,325.747 323.5,321C 329.114,316.976 334.114,312.976 338.5,309C 343.185,307.65 346.685,304.817 349,300.5C 349.333,300.833 349.667,301.167 350,301.5C 350.981,299.04 351.815,296.54 352.5,294C 350.067,287.636 347.234,281.469 344,275.5C 342.333,273.833 340.667,272.167 339,270.5C 338.815,265.499 337.148,261.165 334,257.5C 330.761,261.059 326.761,263.392 322,264.5C 318.435,261.535 316.602,257.702 316.5,253C 317.62,244.019 319.454,235.186 322,226.5C 329.634,200.527 346.801,185.693 373.5,182C 391.905,180.228 410.239,177.894 428.5,175C 452.175,173.41 475.842,171.743 499.5,170C 512.232,166.046 525.065,162.546 538,159.5C 546.105,160.151 553.938,161.984 561.5,165C 585.284,175.147 607.284,188.147 627.5,204C 633.41,209.239 638.577,215.072 643,221.5C 645.874,226.082 647.041,230.916 646.5,236C 649.308,245.955 650.141,256.121 649,266.5C 647.673,274.45 646.84,282.45 646.5,290.5C 646.335,302.186 649.501,312.853 656,322.5C 662.529,330.218 667.529,338.885 671,348.5C 674.377,361.579 677.544,374.579 680.5,387.5 Z"/></g> <g><path style="opacity:1" fill="#787878" d="M 258.5,159.5 C 258.573,161.027 257.906,162.027 256.5,162.5C 256.427,160.973 257.094,159.973 258.5,159.5 Z"/></g> <g><path style="opacity:1" fill="#787878" d="M 254.5,165.5 C 254.573,167.027 253.906,168.027 252.5,168.5C 252.427,166.973 253.094,165.973 254.5,165.5 Z"/></g> <g><path style="opacity:1" fill="#787878" d="M 688.5,167.5 C 689.906,167.973 690.573,168.973 690.5,170.5C 689.094,170.027 688.427,169.027 688.5,167.5 Z"/></g> <g><path style="opacity:1" fill="#6c6c6c" d="M 692.5,173.5 C 694.873,175.579 696.206,178.246 696.5,181.5C 694.659,179.151 693.326,176.485 692.5,173.5 Z"/></g> <g><path style="opacity:1" fill="#fefefe" d="M 500.5,179.5 C 531.429,176.08 556.929,186.08 577,209.5C 581.217,214.899 582.717,220.899 581.5,227.5C 582.218,233.257 583.385,238.924 585,244.5C 588.145,251.456 591.811,258.123 596,264.5C 598.832,272.991 600.499,281.658 601,290.5C 599.426,289.016 598.093,287.349 597,285.5C 596.167,287.5 595.333,289.5 594.5,291.5C 593.522,291.023 592.689,290.357 592,289.5C 591.603,293.092 592.103,296.592 593.5,300C 592.833,300.667 592.167,301.333 591.5,302C 594.434,305.938 597.767,309.605 601.5,313C 601.167,313.333 600.833,313.667 600.5,314C 603.939,315.423 605.272,317.756 604.5,321C 606.618,321.26 608.284,322.26 609.5,324C 608.451,324.492 607.451,324.326 606.5,323.5C 606.511,324.441 606.011,325.108 605,325.5C 598.113,323.637 591.28,321.637 584.5,319.5C 583.713,320.242 583.047,321.075 582.5,322C 576.362,322.849 570.195,323.349 564,323.5C 551.539,321.919 539.039,321.419 526.5,322C 521.805,322.872 517.139,323.872 512.5,325C 506.508,328.11 500.175,330.443 493.5,332C 488.884,334.56 484.718,337.727 481,341.5C 475.075,372.266 473.075,403.266 475,434.5C 477.259,443.982 479.759,453.316 482.5,462.5C 483.086,462.291 483.586,461.957 484,461.5C 486.899,463.367 490.065,464.867 493.5,466C 498.344,470.498 499.177,474.998 496,479.5C 490.637,481.732 485.137,483.566 479.5,485C 474.5,488 469.5,491 464.5,494C 455.5,496.274 447.667,493.774 441,486.5C 439.456,483.095 438.289,479.595 437.5,476C 440.422,453.46 443.922,430.96 448,408.5C 453.441,380.028 445.607,356.194 424.5,337C 411.954,328.893 398.954,321.56 385.5,315C 386.198,312.546 387.198,310.213 388.5,308C 386.126,307.152 384.126,305.819 382.5,304C 384.741,288.309 387.908,272.809 392,257.5C 396.034,250.097 399.534,242.431 402.5,234.5C 402.132,233.09 401.299,232.09 400,231.5C 399.785,227.715 399.619,224.048 399.5,220.5C 398.667,221.5 397.833,222.5 397,223.5C 395.667,221.5 394.333,219.5 393,217.5C 392.667,217.833 392.333,218.167 392,218.5C 388.386,216.625 384.553,215.125 380.5,214C 378.239,213.761 376.239,213.594 374.5,213.5C 377.709,209.127 381.709,205.627 386.5,203C 387.071,201.795 387.738,200.628 388.5,199.5C 391.796,198.235 395.129,197.068 398.5,196C 432.6,190.275 466.6,184.775 500.5,179.5 Z"/></g> <g><path style="opacity:1" fill="#6b6b6b" d="M 250.5,171.5 C 245.552,179 241.552,187 238.5,195.5C 239.338,185.823 243.338,177.823 250.5,171.5 Z"/></g> <g><path style="opacity:1" fill="#6b6b6b" d="M 706.5,207.5 C 712.588,213.096 714.921,220.096 713.5,228.5C 712.563,221.109 710.23,214.109 706.5,207.5 Z"/></g> <g><path style="opacity:1" fill="#696969" d="M 229.5,238.5 C 229.149,242.684 228.482,246.684 227.5,250.5C 227.083,246.183 227.75,242.183 229.5,238.5 Z"/></g> <g><path style="opacity:1" fill="#787878" d="M 227.5,250.5 C 227.265,257.354 226.598,264.021 225.5,270.5C 225.334,264.824 225.501,259.157 226,253.5C 226.232,252.263 226.732,251.263 227.5,250.5 Z"/></g> <g><path style="opacity:1" fill="#6b6b6b" d="M 225.5,272.5 C 224.224,283.507 224.224,294.507 225.5,305.5C 224.732,304.737 224.232,303.737 224,302.5C 223.333,293.5 223.333,284.5 224,275.5C 224.232,274.263 224.732,273.263 225.5,272.5 Z"/></g> <g><path style="opacity:1" fill="#707070" d="M 721.5,295.5 C 724.12,302.404 723.453,309.071 719.5,315.5C 720.821,308.905 721.488,302.239 721.5,295.5 Z"/></g> <g><path style="opacity:1" fill="#9e9e9e" d="M 247.5,530.5 C 246.416,524.25 245.582,517.917 245,511.5C 244.333,476.5 244.333,441.5 245,406.5C 247.245,388.6 250.079,370.934 253.5,353.5C 257.995,336.173 265.495,320.173 276,305.5C 276.617,306.449 276.451,307.282 275.5,308C 278.963,308.556 281.13,307.056 282,303.5C 282.309,304.766 282.809,305.933 283.5,307C 282.449,309.369 281.782,311.869 281.5,314.5C 282.015,318.84 281.348,323.173 279.5,327.5C 281.18,332.06 282.013,336.727 282,341.5C 281.182,337.677 280.016,337.51 278.5,341C 279.128,347.378 279.795,353.711 280.5,360C 279,363.011 278.166,362.511 278,358.5C 278.228,367.63 276.895,368.297 274,360.5C 272.359,365.484 271.193,370.651 270.5,376C 270.245,377.326 269.578,378.326 268.5,379C 268.957,379.414 269.291,379.914 269.5,380.5C 268.732,384.445 268.232,388.445 268,392.5C 267.667,389.833 267.333,387.167 267,384.5C 266.667,384.833 266.333,385.167 266,385.5C 265.333,392.833 265.333,400.167 266,407.5C 266.5,408.5 267,409.5 267.5,410.5C 266.349,413.8 266.683,417.3 268.5,421C 268.043,421.414 267.709,421.914 267.5,422.5C 269.813,423.971 270.147,425.804 268.5,428C 271.229,430.249 271.896,432.916 270.5,436C 274.769,447.881 278.769,459.881 282.5,472C 282.239,475.406 282.239,478.74 282.5,482C 280.804,484.269 280.47,486.602 281.5,489C 280.93,496.469 279.93,503.969 278.5,511.5C 279.456,514.081 279.456,516.581 278.5,519C 279.357,519.689 280.023,520.522 280.5,521.5C 278.972,522.861 277.305,524.028 275.5,525C 276.784,525.684 277.951,525.517 279,524.5C 279.25,527.85 280.083,531.017 281.5,534C 281.833,534.167 282.167,534.333 282.5,534.5C 283.429,533.311 283.762,531.978 283.5,530.5C 284.833,530.5 286.167,530.5 287.5,530.5C 289.7,525.786 292.2,521.119 295,516.5C 298.027,506.392 301.36,496.392 305,486.5C 305.419,487.672 306.085,488.672 307,489.5C 307.667,496.5 307.667,503.5 307,510.5C 307.142,525.51 303.142,539.177 295,551.5C 290.22,555.033 286.886,559.7 285,565.5C 283.724,561.218 282.224,557.051 280.5,553C 281.271,551.002 280.605,549.335 278.5,548C 279.476,545.853 279.309,543.686 278,541.5C 276.609,545.046 274.442,548.546 271.5,552C 266.844,553.808 262.844,556.308 259.5,559.5C 257.164,553.325 258.497,548.158 263.5,544C 261.633,543.289 260.133,543.789 259,545.5C 257.956,547.715 257.29,550.048 257,552.5C 255.349,550.246 255.182,547.912 256.5,545.5C 254.169,543.383 253.003,540.716 253,537.5C 252.667,537.833 252.333,538.167 252,538.5C 251.667,537.167 251.333,535.833 251,534.5C 250.667,535.167 250.333,535.833 250,536.5C 249.963,534.026 249.13,532.026 247.5,530.5 Z"/></g> <g><path style="opacity:1" fill="#606060" d="M 530.5,324.5 C 542.02,324.241 553.353,325.574 564.5,328.5C 567.063,328.263 567.063,327.763 564.5,327C 587.571,324.794 605.738,332.961 619,351.5C 620.159,357.327 622.993,362.16 627.5,366C 626.483,367.049 626.316,368.216 627,369.5C 629.784,371.164 630.45,373.164 629,375.5C 622.758,375.473 616.924,373.639 611.5,370C 612.793,369.51 614.127,369.343 615.5,369.5C 615.719,368.325 615.386,367.325 614.5,366.5C 611.02,364.834 607.686,363.001 604.5,361C 607.833,361.667 611.167,362.333 614.5,363C 611.293,358.687 606.96,356.02 601.5,355C 602.833,354.667 604.167,354.333 605.5,354C 589.442,346.941 572.775,344.274 555.5,346C 536.595,349.746 518.595,356.08 501.5,365C 497.084,367.412 493.251,370.578 490,374.5C 487.333,379.833 484.667,385.167 482,390.5C 481.333,385.5 481.333,380.5 482,375.5C 483.658,367.218 484.991,358.885 486,350.5C 489.534,342.635 495.367,337.135 503.5,334C 512.441,330.173 521.441,327.007 530.5,324.5 Z"/></g> <g><path style="opacity:1" fill="#000000" d="M 533.5,327.5 C 539.577,327.196 545.577,327.696 551.5,329C 548.833,329.333 546.167,329.667 543.5,330C 552.762,331.813 561.762,334.313 570.5,337.5C 569.359,338.425 569.359,339.259 570.5,340C 572.715,340.17 574.715,340.837 576.5,342C 561.814,343.854 547.147,345.854 532.5,348C 520.502,351.752 508.668,355.918 497,360.5C 495.327,357.761 495.661,355.095 498,352.5C 504.838,347.993 510.671,342.493 515.5,336C 516.449,335.383 517.282,335.549 518,336.5C 519.558,334.232 521.724,333.066 524.5,333C 523.167,332.333 523.167,331.667 524.5,331C 527.718,330.1 530.718,328.933 533.5,327.5 Z"/></g> <g><path style="opacity:1" fill="#686868" d="M 225.5,328.5 C 226.513,335.989 227.18,343.656 227.5,351.5C 226.71,350.391 226.21,349.058 226,347.5C 225.5,341.175 225.334,334.842 225.5,328.5 Z"/></g> <g><path style="opacity:1" fill="#000000" d="M 412.5,400.5 C 410.396,398.901 408.396,397.068 406.5,395C 397.405,390.452 388.405,385.952 379.5,381.5C 380.603,386.092 379.936,390.425 377.5,394.5C 370.704,396.949 363.704,398.616 356.5,399.5C 353.045,398.804 349.712,397.804 346.5,396.5C 344.804,393.764 343.638,390.764 343,387.5C 342.439,386.978 341.772,386.645 341,386.5C 337.632,387.868 335.799,390.368 335.5,394C 330.255,392.613 325.921,394.113 322.5,398.5C 321.11,399.899 320.11,401.566 319.5,403.5C 318.207,404.842 317.374,406.509 317,408.5C 316.274,416.72 314.607,424.72 312,432.5C 309.909,433.5 308.243,432.833 307,430.5C 302.673,421.186 299.34,411.519 297,401.5C 296.333,400.167 295.667,400.167 295,401.5C 292.712,397.544 289.712,394.211 286,391.5C 285.508,390.451 285.674,389.451 286.5,388.5C 285.833,387.833 285.167,387.167 284.5,386.5C 287.172,374.429 291.672,362.762 298,351.5C 305.115,341.364 314.615,334.864 326.5,332C 338.508,331.672 350.508,331.172 362.5,330.5C 378.049,329.137 392.382,332.637 405.5,341C 418.987,348.499 428.154,359.666 433,374.5C 438.385,398.842 437.052,422.842 429,446.5C 427.915,454.846 426.748,463.179 425.5,471.5C 429.242,481.463 434.909,490.297 442.5,498C 448.861,503.521 456.195,506.188 464.5,506C 472,501.082 479.667,496.416 487.5,492C 491.761,490.637 496.095,490.304 500.5,491C 503.326,493.522 502.993,495.522 499.5,497C 492.128,498.259 485.128,500.592 478.5,504C 472.157,510.342 465.491,516.342 458.5,522C 456.5,523 454.5,524 452.5,525C 436.098,527.649 420.765,524.649 406.5,516C 392.539,508.106 388.039,496.606 393,481.5C 401.533,461.376 408.533,440.71 414,419.5C 414.673,413.071 414.173,406.738 412.5,400.5 Z"/></g> <g><path style="opacity:1" fill="#6c6c6c" d="M 717.5,328.5 C 717.59,331.152 716.924,333.485 715.5,335.5C 715.41,332.848 716.076,330.515 717.5,328.5 Z"/></g> <g><path style="opacity:1" fill="#fefefe" d="M 262.5,337.5 C 263.097,337.735 263.43,338.235 263.5,339C 260.882,356.891 257.882,374.391 254.5,391.5C 254.931,392.293 255.265,393.127 255.5,394C 254.956,407.03 253.956,419.863 252.5,432.5C 252.667,433.167 252.833,433.833 253,434.5C 253.419,433.328 254.085,432.328 255,431.5C 255.167,431.833 255.333,432.167 255.5,432.5C 252.12,437.659 253.453,440.493 259.5,441C 258.359,441.741 258.359,442.575 259.5,443.5C 258.5,444.167 257.5,444.833 256.5,445.5C 256.667,445.833 256.833,446.167 257,446.5C 259.124,445.773 261.291,445.106 263.5,444.5C 264.541,446.991 265.374,446.991 266,444.5C 269.048,452.571 270.881,460.905 271.5,469.5C 270.872,471.258 269.872,472.758 268.5,474C 269.308,474.308 269.975,474.808 270.5,475.5C 267.997,477.803 267.33,480.469 268.5,483.5C 267.872,485.258 266.872,486.758 265.5,488C 262.155,489.331 258.822,490.331 255.5,491C 257.208,488.957 259.208,487.29 261.5,486C 258.835,483.9 256.668,484.4 255,487.5C 254.594,485.065 254.094,482.398 253.5,479.5C 252.5,479.5 251.5,479.5 250.5,479.5C 250.203,475.233 250.536,471.066 251.5,467C 251,466.5 250.5,466 250,465.5C 249.87,453.126 249.203,440.792 248,428.5C 247.667,430.5 247.333,432.5 247,434.5C 245.873,424.647 245.873,414.647 247,404.5C 249.387,388.123 252.054,371.79 255,355.5C 256.253,348.886 258.753,342.886 262.5,337.5 Z"/></g> <g><path style="opacity:1" fill="#5f5f5f" d="M 363.5,364.5 C 358.85,365.181 354.184,366.347 349.5,368C 348.027,368.71 347.36,369.876 347.5,371.5C 351.153,371.112 354.82,370.779 358.5,370.5C 363.507,370.5 368.174,371.5 372.5,373.5C 358.79,370.599 345.457,371.933 332.5,377.5C 331.981,375.564 332.647,373.731 334.5,372C 337.382,370.392 340.382,369.059 343.5,368C 341.833,367.333 340.167,367.333 338.5,368C 330.621,371.071 322.621,373.737 314.5,376C 312.383,377.731 310.883,379.898 310,382.5C 309,386.5 308,390.5 307,394.5C 306.352,387.717 307.019,381.05 309,374.5C 309.973,372.36 311.473,370.693 313.5,369.5C 312.271,368.719 310.938,368.219 309.5,368C 309.833,367.667 310.167,367.333 310.5,367C 309.692,366.692 309.025,366.192 308.5,365.5C 309.748,363.541 311.415,362.041 313.5,361C 312.833,360.333 312.167,359.667 311.5,359C 317.965,355.6 324.298,351.933 330.5,348C 356.164,345.667 380.83,349.667 404.5,360C 419.286,369.072 425.952,382.238 424.5,399.5C 410.095,373.794 388.095,361.961 358.5,364C 360.134,364.494 361.801,364.66 363.5,364.5 Z"/></g> <g><path style="opacity:1" fill="#fefffe" d="M 559.5,347.5 C 565.145,348.127 570.811,348.627 576.5,349C 581.571,351.605 586.904,353.605 592.5,355C 590.559,355.743 588.726,355.576 587,354.5C 586.544,355.744 587.044,356.577 588.5,357C 583.822,357.197 583.488,358.197 587.5,360C 574.068,358.582 560.735,356.248 547.5,353C 546.167,352.333 546.167,351.667 547.5,351C 551.482,349.33 555.482,348.163 559.5,347.5 Z"/></g> <g><path style="opacity:1" fill="#9e9f9e" d="M 344.5,348.5 C 361.826,349.722 378.826,352.888 395.5,358C 404.168,361.345 411.001,366.845 416,374.5C 416.667,376.167 416.667,377.833 416,379.5C 409.248,375.54 402.414,371.707 395.5,368C 382.959,362.987 369.959,361.321 356.5,363C 347.228,364.955 337.895,366.455 328.5,367.5C 328.649,366.448 328.483,365.448 328,364.5C 327.667,364.833 327.333,365.167 327,365.5C 323.584,362.975 323.917,360.975 328,359.5C 329.064,356.436 330.897,353.936 333.5,352C 337.161,350.407 340.828,349.241 344.5,348.5 Z"/></g> <g><path style="opacity:1" fill="#fefffe" d="M 352.5,352.5 C 365.915,352.311 378.915,354.477 391.5,359C 394.503,360.166 397.17,361.833 399.5,364C 392.171,363.34 384.837,362.34 377.5,361C 367.167,360.667 356.833,360.333 346.5,360C 346.473,358.474 345.973,356.974 345,355.5C 347.378,354.033 349.878,353.033 352.5,352.5 Z"/></g> <g><path style="opacity:1" fill="#5f605f" d="M 556.5,357.5 C 542.393,356.156 529.06,358.656 516.5,365C 514.208,366.29 512.208,367.957 510.5,370C 511,370.167 511.5,370.333 512,370.5C 524.818,363.004 538.651,359.337 553.5,359.5C 549.097,359.987 544.764,361.154 540.5,363C 543.167,363.667 543.167,364.333 540.5,365C 548.738,365.791 556.738,367.291 564.5,369.5C 558.195,368.513 551.862,368.347 545.5,369C 531.156,371.903 518.489,378.07 507.5,387.5C 508.333,387.833 509.167,388.167 510,388.5C 518.852,386.49 527.352,383.49 535.5,379.5C 537.082,381.577 538.082,383.91 538.5,386.5C 537.244,386.096 536.077,385.429 535,384.5C 532.511,386.319 530.011,388.152 527.5,390C 524.5,391 521.5,392 518.5,393C 508.843,392.141 500.01,394.308 492,399.5C 492.745,395.035 494.912,391.201 498.5,388C 495.809,387.05 493.143,386.384 490.5,386C 492.829,380.346 496.162,375.346 500.5,371C 517.132,357.889 535.799,353.389 556.5,357.5 Z"/></g> <g><path style="opacity:1" fill="#000000" d="M 556.5,357.5 C 564.993,358.733 573.326,360.733 581.5,363.5C 588.213,366.95 594.379,371.283 600,376.5C 603.898,382.071 607.398,387.905 610.5,394C 608.613,394.163 607.113,393.329 606,391.5C 599.786,379.114 590.286,370.448 577.5,365.5C 570.143,361.357 562.143,359.357 553.5,359.5C 538.651,359.337 524.818,363.004 512,370.5C 511.5,370.333 511,370.167 510.5,370C 512.208,367.957 514.208,366.29 516.5,365C 529.06,358.656 542.393,356.156 556.5,357.5 Z"/></g> <g><path style="opacity:1" fill="#9a9a9a" d="M 553.5,359.5 C 562.143,359.357 570.143,361.357 577.5,365.5C 578.791,366.473 578.791,367.473 577.5,368.5C 578.263,369.719 579.263,370.719 580.5,371.5C 579.833,371.833 579.167,372.167 578.5,372.5C 573.887,371.18 569.221,370.18 564.5,369.5C 556.738,367.291 548.738,365.791 540.5,365C 543.167,364.333 543.167,363.667 540.5,363C 544.764,361.154 549.097,359.987 553.5,359.5 Z"/></g> <g><path style="opacity:1" fill="#606060" d="M 581.5,363.5 C 589.326,365.826 596.326,369.66 602.5,375C 609.167,378.333 615.833,381.667 622.5,385C 621.552,385.483 620.552,385.649 619.5,385.5C 619.607,389.935 620.94,393.935 623.5,397.5C 623.167,398.167 622.833,398.833 622.5,399.5C 624.487,401.327 626.821,402.327 629.5,402.5C 629.649,403.552 629.483,404.552 629,405.5C 625.109,406.751 624.276,408.751 626.5,411.5C 624.306,412.632 621.973,413.299 619.5,413.5C 614.241,412.763 609.075,411.763 604,410.5C 597.643,411.754 591.476,413.754 585.5,416.5C 584.833,416.333 584.167,416.167 583.5,416C 584.5,415.667 585.5,415.333 586.5,415C 586.167,414.667 585.833,414.333 585.5,414C 588.128,412.374 590.461,410.374 592.5,408C 590.579,407.64 588.912,406.806 587.5,405.5C 582.903,399.97 579.07,393.97 576,387.5C 575.28,389.056 574.113,390.056 572.5,390.5C 573.058,388.436 574.225,386.77 576,385.5C 581.857,389.523 587.69,393.69 593.5,398C 600.151,401.533 606.818,404.033 613.5,405.5C 611.517,404.018 609.684,402.351 608,400.5C 603.93,393.429 598.763,387.262 592.5,382C 583.461,376.977 574.128,372.81 564.5,369.5C 569.221,370.18 573.887,371.18 578.5,372.5C 579.167,372.167 579.833,371.833 580.5,371.5C 579.263,370.719 578.263,369.719 577.5,368.5C 578.791,367.473 578.791,366.473 577.5,365.5C 590.286,370.448 599.786,379.114 606,391.5C 607.113,393.329 608.613,394.163 610.5,394C 607.398,387.905 603.898,382.071 600,376.5C 594.379,371.283 588.213,366.95 581.5,363.5 Z"/></g> <g><path style="opacity:1" fill="#9c9c9c" d="M 363.5,364.5 C 369.489,364.367 375.156,365.367 380.5,367.5C 383.328,369.47 386.328,371.303 389.5,373C 392.335,374.44 392.835,376.273 391,378.5C 385.95,376.779 380.783,375.446 375.5,374.5C 374.209,374.737 373.209,374.404 372.5,373.5C 368.174,371.5 363.507,370.5 358.5,370.5C 354.82,370.779 351.153,371.112 347.5,371.5C 347.36,369.876 348.027,368.71 349.5,368C 354.184,366.347 358.85,365.181 363.5,364.5 Z"/></g> <g><path style="opacity:1" fill="#5f605f" d="M 380.5,367.5 C 385.293,368.229 389.626,370.063 393.5,373C 400.961,378.793 408.128,384.959 415,391.5C 418.115,397.167 419.781,403.167 420,409.5C 418.853,407.269 417.853,404.935 417,402.5C 415.67,401.418 414.17,400.751 412.5,400.5C 411.242,397.688 411.242,395.521 412.5,394C 400.421,386.961 388.088,380.461 375.5,374.5C 380.783,375.446 385.95,376.779 391,378.5C 392.835,376.273 392.335,374.44 389.5,373C 386.328,371.303 383.328,369.47 380.5,367.5 Z"/></g> <g><path style="opacity:1" fill="#000000" d="M 564.5,369.5 C 574.128,372.81 583.461,376.977 592.5,382C 598.763,387.262 603.93,393.429 608,400.5C 609.684,402.351 611.517,404.018 613.5,405.5C 606.818,404.033 600.151,401.533 593.5,398C 587.69,393.69 581.857,389.523 576,385.5C 574.225,386.77 573.058,388.436 572.5,390.5C 566.714,394.14 560.38,395.307 553.5,394C 546.883,394.423 541.883,391.923 538.5,386.5C 538.082,383.91 537.082,381.577 535.5,379.5C 527.352,383.49 518.852,386.49 510,388.5C 509.167,388.167 508.333,387.833 507.5,387.5C 518.489,378.07 531.156,371.903 545.5,369C 551.862,368.347 558.195,368.513 564.5,369.5 Z"/></g> <g><path style="opacity:1" fill="#5f605f" d="M 613.5,375.5 C 618.18,375.425 622.847,376.592 627.5,379C 622.495,379.082 617.828,377.915 613.5,375.5 Z"/></g> <g><path style="opacity:1" fill="#5f605f" d="M 555.5,377.5 C 555.56,376.957 555.893,376.624 556.5,376.5C 561.618,381.111 561.285,381.444 555.5,377.5 Z"/></g> <g><path style="opacity:1" fill="#5f605f" d="M 364.5,381.5 C 364.897,380.475 365.563,380.308 366.5,381C 367.833,382.333 369.167,383.667 370.5,385C 369.833,385.667 369.167,385.667 368.5,385C 367.295,383.624 365.962,382.458 364.5,381.5 Z"/></g> <g><path style="opacity:1" fill="#fefffe" d="M 677.5,387.5 C 681.478,399.201 683.478,411.368 683.5,424C 683.678,428.785 682.678,433.285 680.5,437.5C 679.249,421.468 677.915,405.468 676.5,389.5C 676.863,388.817 677.196,388.15 677.5,387.5 Z"/></g> <g><path style="opacity:1" fill="#fefffe" d="M 536.5,389.5 C 538.649,391.746 541.316,393.246 544.5,394C 552.862,394.859 561.195,395.859 569.5,397C 562.274,398.594 554.94,398.928 547.5,398C 542.222,397.696 538.222,395.363 535.5,391C 536.056,390.617 536.389,390.117 536.5,389.5 Z"/></g> <g><path style="opacity:1" fill="#999999" d="M 322.5,398.5 C 323.88,398.962 324.547,399.962 324.5,401.5C 323.5,406.332 322,410.999 320,415.5C 319.173,414.338 318.34,413.171 317.5,412C 318.406,409.209 319.073,406.376 319.5,403.5C 320.11,401.566 321.11,399.899 322.5,398.5 Z"/></g> <g><path style="opacity:1" fill="#fdfdfd" d="M 379.5,398.5 C 381.199,398.34 382.866,398.506 384.5,399C 380.431,402.026 380.764,402.859 385.5,401.5C 389.108,401.98 392.441,403.147 395.5,405C 392.456,405.359 392.122,406.026 394.5,407C 386.766,409.173 378.766,411.507 370.5,414C 367.901,414.769 365.401,414.602 363,413.5C 364.5,409.438 367.666,407.271 372.5,407C 370.699,406.683 370.366,406.016 371.5,405C 373.5,404.333 375.5,403.667 377.5,403C 376.692,402.692 376.025,402.192 375.5,401.5C 376.901,400.479 378.235,399.479 379.5,398.5 Z"/></g> <g><path style="opacity:1" fill="#fefffe" d="M 554.5,401.5 C 561.902,401.592 569.402,401.592 577,401.5C 577.465,402.931 578.299,404.097 579.5,405C 578.167,405.667 576.833,406.333 575.5,407C 576.5,408 577.5,409 578.5,410C 574.649,413.877 569.983,415.377 564.5,414.5C 551.963,414.698 540.63,411.198 530.5,404C 532.769,403.242 534.936,403.409 537,404.5C 538.299,403.02 539.966,402.354 542,402.5C 544.333,402.833 546.667,403.167 549,403.5C 551.221,403.607 553.054,402.94 554.5,401.5 Z"/></g> <g><path style="opacity:1" fill="#000000" d="M 325.5,404.5 C 326.161,405.718 326.828,407.051 327.5,408.5C 328.086,408.291 328.586,407.957 329,407.5C 329.333,410.5 329.667,413.5 330,416.5C 336.87,420.846 344.37,423.513 352.5,424.5C 358.897,423.654 365.23,422.82 371.5,422C 353.65,428.501 335.65,429.168 317.5,424C 319,423.167 320.167,422 321,420.5C 322.609,415.177 324.109,409.844 325.5,404.5 Z"/></g> <g><path style="opacity:1" fill="#5f605f" d="M 518.5,406.5 C 531.257,411.029 544.257,414.862 557.5,418C 564.747,418.812 571.914,418.646 579,417.5C 581.652,418.59 583.152,420.59 583.5,423.5C 562.193,426.817 541.193,422.65 520.5,411C 517.985,410.061 517.318,408.561 518.5,406.5 Z"/></g> <g><path style="opacity:1" fill="#9e9e9e" d="M 284.5,413.5 C 286.783,413.608 288.783,414.441 290.5,416C 291.453,417.955 292.787,419.622 294.5,421C 294.167,421.333 293.833,421.667 293.5,422C 296.407,428.892 299.407,435.725 302.5,442.5C 300.731,444.458 300.065,446.458 300.5,448.5C 298.349,446.228 296.849,443.561 296,440.5C 292.052,437.613 288.552,435.113 285.5,433C 285.833,432.667 286.167,432.333 286.5,432C 285.333,430.833 284.167,429.667 283,428.5C 282.883,425.058 281.717,422.058 279.5,419.5C 281.324,417.592 282.991,415.592 284.5,413.5 Z"/></g> <g><path style="opacity:1" fill="#9d9d9d" d="M 702.5,414.5 C 709.073,416.206 715.739,417.039 722.5,417C 727.127,419.788 730.461,423.622 732.5,428.5C 730.374,429.048 728.374,429.715 726.5,430.5C 722.659,432.003 718.659,433.336 714.5,434.5C 705.569,437.597 699.402,443.597 696,452.5C 692.212,439.664 694.712,428.331 703.5,418.5C 703.043,417.702 702.376,417.369 701.5,417.5C 699.45,416.678 699.783,415.678 702.5,414.5 Z"/></g> <g><path style="opacity:1" fill="#fefefe" d="M 511.5,417.5 C 517.718,418.674 523.885,420.008 530,421.5C 531.441,420.74 532.941,420.074 534.5,419.5C 551.147,425.932 568.314,428.265 586,426.5C 595.819,427.552 605.153,430.219 614,434.5C 617.35,435.822 620.684,435.822 624,434.5C 626.317,435.826 628.651,437.16 631,438.5C 631.251,440.433 631.751,442.266 632.5,444C 631.4,447.934 631.4,451.934 632.5,456C 629.452,469.319 622.618,483.152 612,497.5C 609.781,501.271 608.115,505.271 607,509.5C 603.445,528.169 600.111,546.835 597,565.5C 596.351,562.063 595.851,561.896 595.5,565C 595.667,565.833 595.833,566.667 596,567.5C 601.064,562.632 601.897,563.966 598.5,571.5C 601.158,579.592 600.824,587.592 597.5,595.5C 597.833,596.167 598.167,596.833 598.5,597.5C 597.185,604.156 594.185,609.822 589.5,614.5C 588.36,616.741 588.36,618.908 589.5,621C 586.823,623.345 584.49,626.012 582.5,629C 578.4,632.053 574.4,634.553 570.5,636.5C 569.808,635.975 569.308,635.308 569,634.5C 567.907,636.349 566.574,638.016 565,639.5C 564.751,638.376 564.251,637.376 563.5,636.5C 561.08,639.267 558.247,641.601 555,643.5C 555.344,641.742 555.844,639.909 556.5,638C 556.333,637.167 556.167,636.333 556,635.5C 555.667,635.833 555.333,636.167 555,636.5C 554.626,635.584 554.126,634.75 553.5,634C 554.821,632.455 554.488,631.289 552.5,630.5C 542.623,633.203 535.957,639.703 532.5,650C 533.395,651.884 533.061,653.717 531.5,655.5C 529.471,654.371 529.137,654.871 530.5,657C 529.692,659.088 528.692,661.088 527.5,663C 528.668,664.406 528.335,665.572 526.5,666.5C 527.167,666.833 527.833,667.167 528.5,667.5C 504.769,692.683 476.436,699.85 443.5,689C 438.044,685.213 432.877,681.046 428,676.5C 423.925,669.682 420.425,662.682 417.5,655.5C 419.307,651.859 421.974,649.026 425.5,647C 431.07,644.715 436.736,642.715 442.5,641C 455.306,640.186 467.972,640.353 480.5,641.5C 479.136,637.456 480.636,636.456 485,638.5C 485.5,638 486,637.5 486.5,637C 489.167,636.667 491.833,636.333 494.5,636C 493.167,635.667 491.833,635.333 490.5,635C 499.263,635.144 507.263,632.811 514.5,628C 513.377,626.956 512.044,626.29 510.5,626C 515.559,622.165 515.225,620.165 509.5,620C 510.833,618.667 512.167,617.333 513.5,616C 511.285,615.612 509.952,614.612 509.5,613C 493.988,612.539 479.655,608.206 466.5,600C 464.981,598.649 463.648,597.149 462.5,595.5C 463.025,594.808 463.692,594.308 464.5,594C 464.167,593.667 463.833,593.333 463.5,593C 467.039,592.718 470.539,592.218 474,591.5C 480.289,592.292 486.455,592.625 492.5,592.5C 496.309,590.926 499.809,590.592 503,591.5C 505.324,590.155 507.658,589.822 510,590.5C 519.824,587.331 529.324,588.165 538.5,593C 541.167,593.667 543.833,593.667 546.5,593C 549.73,591.692 553.064,590.692 556.5,590C 555.5,589.667 554.5,589.333 553.5,589C 557.041,587.929 557.708,586.263 555.5,584C 557.968,582.412 558.134,580.578 556,578.5C 555.612,579.428 554.945,580.095 554,580.5C 551.592,576.706 548.092,574.539 543.5,574C 535.861,572.293 528.194,572.126 520.5,573.5C 506.013,569.378 491.346,565.878 476.5,563C 473.833,562.333 471.167,562.333 468.5,563C 464.973,563.888 461.473,564.722 458,565.5C 454.477,565.163 450.977,564.663 447.5,564C 438.833,561 430.167,558 421.5,555C 422.424,554.15 422.424,553.15 421.5,552C 422.604,548.258 425.271,545.258 429.5,543C 435.804,541.924 442.138,541.091 448.5,540.5C 452.468,543.084 454.968,546.751 456,551.5C 458.953,553.887 461.286,553.221 463,549.5C 464.964,546.061 464.797,542.895 462.5,540C 463.74,537.088 465.406,534.421 467.5,532C 465.833,532.333 464.167,532.667 462.5,533C 464.705,530.46 467.205,528.293 470,526.5C 470.333,526.833 470.667,527.167 471,527.5C 480.878,520.636 491.045,514.136 501.5,508C 509.979,499.539 516.313,489.706 520.5,478.5C 513.065,461.64 506.398,444.807 500.5,428C 498.077,427.268 496.91,425.768 497,423.5C 497.689,424.357 498.522,425.023 499.5,425.5C 499.296,424.471 499.796,423.471 501,422.5C 502.763,423.944 504.763,424.944 507,425.5C 508.583,423.798 508.083,422.464 505.5,421.5C 506.743,419.167 508.409,418.5 510.5,419.5C 511.298,419.043 511.631,418.376 511.5,417.5 Z"/></g> <g><path style="opacity:1" fill="#646464" d="M 701.5,417.5 C 702.376,417.369 703.043,417.702 703.5,418.5C 694.712,428.331 692.212,439.664 696,452.5C 699.402,443.597 705.569,437.597 714.5,434.5C 711.829,436.934 708.996,439.267 706,441.5C 705.312,442.332 705.479,442.998 706.5,443.5C 711.752,443.496 717.418,442.996 723.5,442C 725.888,441.697 728.055,440.863 730,439.5C 730.333,439.833 730.667,440.167 731,440.5C 733.951,437.828 735.117,434.495 734.5,430.5C 731.833,430.5 729.167,430.5 726.5,430.5C 728.374,429.715 730.374,429.048 732.5,428.5C 733.496,428.414 734.329,428.748 735,429.5C 735.667,435.167 735.667,440.833 735,446.5C 731.226,457.384 726.892,468.05 722,478.5C 723.071,471.455 725.237,464.789 728.5,458.5C 731.509,453.634 733.009,448.301 733,442.5C 731.261,444.741 729.094,446.408 726.5,447.5C 725.914,447.291 725.414,446.957 725,446.5C 722.07,448.255 718.903,449.422 715.5,450C 713.487,452.379 711.654,454.879 710,457.5C 709.6,454.714 708.767,452.048 707.5,449.5C 706.914,449.291 706.414,448.957 706,448.5C 700.321,451.848 695.988,456.515 693,462.5C 692.433,469.185 690.766,475.518 688,481.5C 686.515,476.217 685.348,470.883 684.5,465.5C 686.446,467.734 687.613,470.401 688,473.5C 692.119,459.896 694.119,445.896 694,431.5C 694.438,428.624 695.438,425.957 697,423.5C 699.127,421.886 700.627,419.886 701.5,417.5 Z"/></g> <g><path style="opacity:1" fill="#fdfdfd" d="M 709.5,418.5 C 712.999,418.259 713.332,419.092 710.5,421C 712.368,421.004 714.202,420.504 716,419.5C 717.872,420.068 719.705,420.735 721.5,421.5C 722.711,422.274 722.711,423.107 721.5,424C 722.253,425.487 723.086,425.654 724,424.5C 724.374,425.416 724.874,426.25 725.5,427C 723.385,427.557 721.385,428.391 719.5,429.5C 715.04,430.243 713.04,429.91 713.5,428.5C 713.649,427.448 713.483,426.448 713,425.5C 711.846,426.743 710.512,427.743 709,428.5C 706.484,428.879 703.984,428.379 701.5,427C 703.705,425.923 705.705,425.257 707.5,425C 705.048,422.04 705.714,419.873 709.5,418.5 Z"/></g> <g><path style="opacity:1" fill="#6d6d6d" d="M 211.5,421.5 C 214.971,424.155 218.304,427.155 221.5,430.5C 220.833,430.833 220.167,431.167 219.5,431.5C 215.605,430.94 211.772,430.274 208,429.5C 207.536,430.094 207.369,430.761 207.5,431.5C 206.427,430.749 206.26,429.749 207,428.5C 208.026,425.761 209.526,423.428 211.5,421.5 Z"/></g> <g><path style="opacity:1" fill="#fefefe" d="M 394.5,430.5 C 396.133,441.495 395.3,452.162 392,462.5C 388.041,470.746 384.375,479.08 381,487.5C 379.274,493.037 378.274,498.704 378,504.5C 376.998,508.164 375.164,511.331 372.5,514C 372.665,515.117 372.998,516.284 373.5,517.5C 372.846,519.115 372.346,520.782 372,522.5C 368.874,527.715 364.374,532.882 358.5,538C 358.165,539.164 358.165,540.497 358.5,542C 357.167,543.333 355.833,544.667 354.5,546C 354.112,547.525 354.112,549.192 354.5,551C 351.196,551.902 350.862,553.236 353.5,555C 352.624,563.35 352.458,571.85 353,580.5C 356.88,588.756 360.047,597.256 362.5,606C 361.762,610.754 361.096,615.587 360.5,620.5C 348.948,617.781 341.948,610.614 339.5,599C 340.205,597.578 340.539,596.245 340.5,595C 338.529,592.135 337.863,589.135 338.5,586C 340.604,585.511 340.938,584.345 339.5,582.5C 339.529,580.971 340.196,579.804 341.5,579C 340.07,577.093 339.404,574.926 339.5,572.5C 339.855,569.269 340.521,566.102 341.5,563C 340.561,559.944 341.227,557.111 343.5,554.5C 342.187,552.482 342.853,551.315 345.5,551C 341.93,549.959 341.597,548.293 344.5,546C 344.245,544.674 343.578,543.674 342.5,543C 343.672,542.581 344.672,541.915 345.5,541C 344.961,532.908 343.794,524.742 342,516.5C 337.816,495.641 341.816,476.307 354,458.5C 357.823,456.741 361.323,453.908 364.5,450C 375.72,444.47 385.72,437.97 394.5,430.5 Z"/></g> <g><path style="opacity:1" fill="#000000" d="M 726.5,430.5 C 729.167,430.5 731.833,430.5 734.5,430.5C 735.117,434.495 733.951,437.828 731,440.5C 730.667,440.167 730.333,439.833 730,439.5C 728.055,440.863 725.888,441.697 723.5,442C 717.418,442.996 711.752,443.496 706.5,443.5C 705.479,442.998 705.312,442.332 706,441.5C 708.996,439.267 711.829,436.934 714.5,434.5C 718.659,433.336 722.659,432.003 726.5,430.5 Z"/></g> <g><path style="opacity:1" fill="#5f605f" d="M 683.5,440.5 C 683.5,447.167 683.5,453.833 683.5,460.5C 681.575,453.91 681.575,447.243 683.5,440.5 Z"/></g> <g><path style="opacity:1" fill="#cccccc" d="M 232.5,462.5 C 232.419,467.477 231.419,472.143 229.5,476.5C 228.596,475.791 228.263,474.791 228.5,473.5C 230.097,462.902 230.763,452.235 230.5,441.5C 231.117,441.389 231.617,441.056 232,440.5C 232.5,447.826 232.666,455.159 232.5,462.5 Z"/></g> <g><path style="opacity:1" fill="#808080" d="M 232.5,462.5 C 232.666,455.159 232.5,447.826 232,440.5C 231.617,441.056 231.117,441.389 230.5,441.5C 230.335,438.482 230.502,435.482 231,432.5C 232.044,434.715 232.71,437.048 233,439.5C 233.822,447.345 233.656,455.011 232.5,462.5 Z"/></g> <g><path style="opacity:1" fill="#fefffe" d="M 679.5,462.5 C 681.825,463.655 682.992,465.655 683,468.5C 683.947,474.343 683.614,480.01 682,485.5C 680.123,477.981 679.289,470.315 679.5,462.5 Z"/></g> <g><path style="opacity:1" fill="#9e9f9e" d="M 695.5,555.5 C 695.565,555.062 695.399,554.728 695,554.5C 694.097,555.701 692.931,556.535 691.5,557C 687.797,557.579 684.131,557.412 680.5,556.5C 680.851,552.316 681.518,548.316 682.5,544.5C 682.343,545.873 682.51,547.207 683,548.5C 684.885,546.197 687.385,545.03 690.5,545C 692,541.989 692.834,542.489 693,546.5C 696.532,541.277 699.699,535.777 702.5,530C 702.018,528.992 701.852,527.825 702,526.5C 698.842,529.08 695.508,531.413 692,533.5C 691.147,535.935 690.147,538.269 689,540.5C 688.333,537.5 688.333,534.5 689,531.5C 693.494,526.499 698.327,521.832 703.5,517.5C 708.226,500.838 713.059,484.171 718,467.5C 714.748,480.988 711.915,494.655 709.5,508.5C 709.667,509.167 709.833,509.833 710,510.5C 711,508.167 712,505.833 713,503.5C 713.167,504 713.333,504.5 713.5,505C 707.598,520.872 701.598,536.706 695.5,552.5C 696.653,553.687 696.653,554.687 695.5,555.5 Z"/></g> <g><path style="opacity:1" fill="#868686" d="M 228.5,473.5 C 228.263,474.791 228.596,475.791 229.5,476.5C 228.435,483.628 227.435,490.628 226.5,497.5C 226.334,491.158 226.5,484.825 227,478.5C 227.198,476.618 227.698,474.952 228.5,473.5 Z"/></g> <g><path style="opacity:1" fill="#727272" d="M 224.5,496.5 C 225.167,496.833 225.833,497.167 226.5,497.5C 227.92,500.261 228.587,503.261 228.5,506.5C 226.817,503.423 225.483,500.09 224.5,496.5 Z"/></g> <g><path style="opacity:1" fill="#5f605f" d="M 703.5,517.5 C 704.363,516.537 705.03,516.537 705.5,517.5C 702.189,522.645 698.022,526.978 693,530.5C 692.333,529.833 692.333,529.167 693,528.5C 697.4,525.602 700.9,521.935 703.5,517.5 Z"/></g> <g><path style="opacity:1" fill="#6a6a6a" d="M 240.5,551.5 C 242.472,555.049 243.472,558.716 243.5,562.5C 242.034,561.653 241.2,560.32 241,558.5C 240.503,556.19 240.337,553.857 240.5,551.5 Z"/></g> <g><path style="opacity:1" fill="#000000" d="M 688.5,562.5 C 684.854,563.283 681.188,563.45 677.5,563C 681.259,561.393 684.926,561.226 688.5,562.5 Z"/></g> <g><path style="opacity:1" fill="#9e9f9e" d="M 677.5,564.5 C 676.743,567.99 675.743,571.323 674.5,574.5C 674.631,573.761 674.464,573.094 674,572.5C 673.346,573.696 672.846,573.696 672.5,572.5C 673.18,570.111 674.014,567.778 675,565.5C 675.671,564.748 676.504,564.414 677.5,564.5 Z"/></g> <g><path style="opacity:1" fill="#000000" d="M 430.5,566.5 C 430.56,565.957 430.893,565.624 431.5,565.5C 439.091,568.971 446.757,572.138 454.5,575C 467.35,575.234 480.183,575.734 493,576.5C 496.848,575.675 500.514,575.341 504,575.5C 514.075,577.915 524.242,580.082 534.5,582C 536.286,582.196 537.619,583.029 538.5,584.5C 527.849,585.666 517.182,585.832 506.5,585C 496.898,583.306 487.231,582.14 477.5,581.5C 468.682,582.377 459.849,583.044 451,583.5C 436.472,581.657 422.138,582.657 408,586.5C 398.18,585.579 388.347,584.745 378.5,584C 377.833,583.667 377.167,583.333 376.5,583C 380.932,576.718 386.765,573.218 394,572.5C 401.585,568.314 409.585,566.981 418,568.5C 418.75,567.874 419.584,567.374 420.5,567C 424.641,566.794 427.974,566.627 430.5,566.5 Z"/></g> <g><path style="opacity:1" fill="#9e9f9e" d="M 559.5,566.5 C 560.694,570.389 560.528,574.389 559,578.5C 558.5,578 558,577.5 557.5,577C 558.739,573.636 559.406,570.136 559.5,566.5 Z"/></g> <g><path style="opacity:1" fill="#9c9c9c" d="M 427.5,591.5 C 428.043,591.56 428.376,591.893 428.5,592.5C 427.477,596.113 426.644,599.779 426,603.5C 422.371,600.822 421.871,601.322 424.5,605C 423.833,605.667 423.167,605.667 422.5,605C 421.743,603.488 420.743,602.154 419.5,601C 420.167,599.333 420.833,597.667 421.5,596C 421.167,595.667 420.833,595.333 420.5,595C 421.5,594.5 422.5,594 423.5,593.5C 424.158,595.437 424.491,597.27 424.5,599C 422.068,600.087 422.402,600.587 425.5,600.5C 425.065,597.162 425.732,594.162 427.5,591.5 Z"/></g> <g><path style="opacity:1" fill="#fcfcfc" d="M 438.5,593.5 C 445.325,592.752 451.325,594.585 456.5,599C 456,599.5 455.5,600 455,600.5C 450.75,597.934 446.584,595.934 442.5,594.5C 441.269,595.651 441.269,596.817 442.5,598C 441.256,598.456 440.423,597.956 440,596.5C 439.667,597.167 439.333,597.833 439,598.5C 438.506,596.866 438.34,595.199 438.5,593.5 Z"/></g> <g><path style="opacity:1" fill="#5f605f" d="M 385.5,596.5 C 390.783,598.936 393.949,602.936 395,608.5C 392.381,604.05 389.214,600.05 385.5,596.5 Z"/></g> <g><path style="opacity:1" fill="#6d6d6d" d="M 263.5,594.5 C 265.737,598.534 267.404,602.868 268.5,607.5C 265.866,603.605 264.199,599.272 263.5,594.5 Z"/></g> <g><path style="opacity:1" fill="#767676" d="M 268.5,607.5 C 270.293,609.426 271.293,611.759 271.5,614.5C 269.707,612.574 268.707,610.241 268.5,607.5 Z"/></g> <g><path style="opacity:1" fill="#a7a7a7" d="M 524.5,625.5 C 525.239,625.369 525.906,625.536 526.5,626C 526.93,626.92 527.264,627.753 527.5,628.5C 528.768,627.572 530.101,627.405 531.5,628C 527.732,631.964 523.732,632.631 519.5,630C 522.544,629.641 522.878,628.974 520.5,628C 522.066,627.392 523.4,626.558 524.5,625.5 Z"/></g> <g><path style="opacity:1" fill="#9e9f9e" d="M 654.5,641.5 C 652.627,654.952 651.961,668.286 652.5,681.5C 652.03,675.65 651.364,669.817 650.5,664C 650.965,656.21 652.299,648.71 654.5,641.5 Z"/></g> <g><path style="opacity:1" fill="#606060" d="M 649.5,701.5 C 646.53,695.561 643.53,689.561 640.5,683.5C 637.381,685.291 635.381,687.958 634.5,691.5C 636.509,700.394 637.342,709.394 637,718.5C 636.304,722.893 634.304,726.56 631,729.5C 632.381,726.212 633.214,722.878 633.5,719.5C 631.893,717.149 629.893,716.482 627.5,717.5C 626.833,715.833 626.167,714.167 625.5,712.5C 624.002,714.829 622.002,716.663 619.5,718C 603.644,722.762 589.311,730.429 576.5,741C 565.902,747.631 554.569,752.631 542.5,756C 526.684,758.247 511.018,761.247 495.5,765C 488.515,766.884 481.848,769.55 475.5,773C 472.469,776.23 469.803,779.73 467.5,783.5C 469.493,788.985 472.16,794.152 475.5,799C 480.047,800.545 484.713,800.879 489.5,800C 494.604,797.965 499.771,796.132 505,794.5C 505.833,794.833 506.667,795.167 507.5,795.5C 487.129,824.177 461.463,830.343 430.5,814C 427.443,813.744 424.443,813.244 421.5,812.5C 421.167,812.833 420.833,813.167 420.5,813.5C 423.977,818.145 427.644,822.645 431.5,827C 430.906,827.464 430.239,827.631 429.5,827.5C 406.403,808.064 382.736,789.398 358.5,771.5C 341.357,757.185 322.524,747.518 302,742.5C 301.529,740.754 300.862,739.087 300,737.5C 298.927,738.28 297.76,738.113 296.5,737C 294.602,733.379 292.102,730.212 289,727.5C 285,732.501 282.334,738.168 281,744.5C 274.477,777.289 272.644,810.289 275.5,843.5C 273.354,829.397 272.354,815.063 272.5,800.5C 270.066,761.885 279.899,726.885 302,695.5C 304.012,703.69 305.012,712.023 305,720.5C 305.899,724.538 307.566,728.205 310,731.5C 313.867,735.702 318.033,739.535 322.5,743C 346.034,759.268 369.034,776.268 391.5,794C 392.332,794.688 392.998,794.521 393.5,793.5C 392.691,791.929 392.357,790.262 392.5,788.5C 400.78,788.254 408.78,789.587 416.5,792.5C 417.086,792.291 417.586,791.957 418,791.5C 423.724,794.612 429.557,797.612 435.5,800.5C 437.776,799.787 440.109,799.287 442.5,799C 446.9,796.149 447.733,792.316 445,787.5C 443.286,781.956 439.786,778.289 434.5,776.5C 434.281,775.325 434.614,774.325 435.5,773.5C 442.14,769.787 449.14,766.953 456.5,765C 487.351,755.121 518.684,747.121 550.5,741C 557.404,738.549 564.07,735.549 570.5,732C 586.952,719.883 603.119,707.383 619,694.5C 623.267,688.459 626.434,682.292 628.5,676C 630.417,673.502 632.084,670.835 633.5,668C 633.036,663.882 634.37,660.215 637.5,657C 637.043,656.586 636.709,656.086 636.5,655.5C 639.278,651.342 641.778,647.009 644,642.5C 642.676,653.773 642.009,665.107 642,676.5C 643.937,685.031 646.437,693.364 649.5,701.5 Z"/></g> <g><path style="opacity:1" fill="#868686" d="M 293.5,660.5 C 298.678,670.857 298.678,681.191 293.5,691.5C 293.5,681.167 293.5,670.833 293.5,660.5 Z"/></g> <g><path style="opacity:1" fill="#9e9e9e" d="M 649.5,701.5 C 650.931,702.78 651.598,704.447 651.5,706.5C 651.5,707.5 651.5,708.5 651.5,709.5C 650.067,707.481 648.733,705.314 647.5,703C 644.773,702.182 642.106,702.348 639.5,703.5C 638.711,709.115 638.211,714.782 638,720.5C 637.562,723.376 636.562,726.043 635,728.5C 612.781,752.749 588.281,773.916 561.5,792C 566.634,787.867 571.468,783.367 576,778.5C 576.013,775.103 576.679,771.77 578,768.5C 576.23,767.724 574.397,767.89 572.5,769C 566.144,772.349 559.81,775.349 553.5,778C 556.282,774.887 555.949,774.221 552.5,776C 542.755,782.246 533.755,789.413 525.5,797.5C 526.376,798.251 527.376,798.751 528.5,799C 518.833,808.667 509.167,818.333 499.5,828C 481.109,838.214 461.776,840.881 441.5,836C 436.764,834.08 432.764,831.247 429.5,827.5C 430.239,827.631 430.906,827.464 431.5,827C 427.644,822.645 423.977,818.145 420.5,813.5C 420.833,813.167 421.167,812.833 421.5,812.5C 424.443,813.244 427.443,813.744 430.5,814C 461.463,830.343 487.129,824.177 507.5,795.5C 506.667,795.167 505.833,794.833 505,794.5C 499.771,796.132 494.604,797.965 489.5,800C 484.713,800.879 480.047,800.545 475.5,799C 472.16,794.152 469.493,788.985 467.5,783.5C 469.803,779.73 472.469,776.23 475.5,773C 481.848,769.55 488.515,766.884 495.5,765C 511.018,761.247 526.684,758.247 542.5,756C 554.569,752.631 565.902,747.631 576.5,741C 589.311,730.429 603.644,722.762 619.5,718C 622.002,716.663 624.002,714.829 625.5,712.5C 626.167,714.167 626.833,715.833 627.5,717.5C 629.893,716.482 631.893,717.149 633.5,719.5C 633.214,722.878 632.381,726.212 631,729.5C 634.304,726.56 636.304,722.893 637,718.5C 637.342,709.394 636.509,700.394 634.5,691.5C 635.381,687.958 637.381,685.291 640.5,683.5C 643.53,689.561 646.53,695.561 649.5,701.5 Z"/></g> <g><path style="opacity:1" fill="#fefefe" d="M 651.5,709.5 C 663.226,737.412 667.059,766.412 663,796.5C 655.642,834.958 647.642,873.291 639,911.5C 634.991,938.553 630.658,965.553 626,992.5C 624.681,1000.49 620.848,1006.82 614.5,1011.5C 575.833,1011.5 537.167,1011.5 498.5,1011.5C 498.333,997.496 498.5,983.496 499,969.5C 501.65,942.119 512.484,918.786 531.5,899.5C 534.438,897.088 537.771,895.255 541.5,894C 544.167,893.333 546.833,893.333 549.5,894C 558.553,897.919 567.22,902.419 575.5,907.5C 587.288,916.724 600.622,922.724 615.5,925.5C 616.568,923.813 616.401,922.146 615,920.5C 611.71,917.452 608.21,914.785 604.5,912.5C 597.795,906.461 590.795,900.794 583.5,895.5C 582.415,893.413 580.749,892.08 578.5,891.5C 565.618,881.578 551.951,872.912 537.5,865.5C 536.089,863.461 534.089,862.461 531.5,862.5C 530.508,862.672 529.842,862.338 529.5,861.5C 521.207,856.842 512.207,854.509 502.5,854.5C 501.551,853.848 500.385,853.514 499,853.5C 488.819,855.087 478.652,856.754 468.5,858.5C 458.007,857.283 447.673,857.283 437.5,858.5C 429.643,858.962 422.309,860.962 415.5,864.5C 402.018,868.909 389.351,874.909 377.5,882.5C 368.172,886.493 359.505,891.493 351.5,897.5C 345.845,899.976 340.845,903.476 336.5,908C 343.819,906.335 351.152,904.335 358.5,902C 366.247,901.226 373.914,900.06 381.5,898.5C 385.947,899.89 389.947,902.056 393.5,905C 403.617,917.454 415.283,928.121 428.5,937C 439.267,946.364 445.433,958.197 447,972.5C 449.689,982.857 449.855,993.19 447.5,1003.5C 444.644,1006.1 441.311,1007.93 437.5,1009C 426.361,1009.99 415.361,1010.82 404.5,1011.5C 365.833,1011.5 327.167,1011.5 288.5,1011.5C 286.759,992.479 285.425,973.479 284.5,954.5C 284.546,927.369 282.879,900.369 279.5,873.5C 278.928,863.498 278.262,853.498 277.5,843.5C 281.032,823.307 283.532,802.973 285,782.5C 285.953,775.227 289.62,769.894 296,766.5C 297.882,761.849 299.549,757.182 301,752.5C 301.483,753.448 301.649,754.448 301.5,755.5C 315.126,758.181 328.793,760.681 342.5,763C 347.992,765.689 353.326,768.523 358.5,771.5C 382.736,789.398 406.403,808.064 429.5,827.5C 432.764,831.247 436.764,834.08 441.5,836C 461.776,840.881 481.109,838.214 499.5,828C 509.167,818.333 518.833,808.667 528.5,799C 527.376,798.751 526.376,798.251 525.5,797.5C 533.755,789.413 542.755,782.246 552.5,776C 555.949,774.221 556.282,774.887 553.5,778C 559.81,775.349 566.144,772.349 572.5,769C 574.397,767.89 576.23,767.724 578,768.5C 576.679,771.77 576.013,775.103 576,778.5C 571.468,783.367 566.634,787.867 561.5,792C 588.281,773.916 612.781,752.749 635,728.5C 636.562,726.043 637.562,723.376 638,720.5C 638.211,714.782 638.711,709.115 639.5,703.5C 642.106,702.348 644.773,702.182 647.5,703C 648.733,705.314 650.067,707.481 651.5,709.5 Z"/></g> <g><path style="opacity:1" fill="#787878" d="M 278.5,711.5 C 278.573,713.027 277.906,714.027 276.5,714.5C 276.427,712.973 277.094,711.973 278.5,711.5 Z"/></g> <g><path style="opacity:1" fill="#787878" d="M 672.5,715.5 C 673.906,715.973 674.573,716.973 674.5,718.5C 673.094,718.027 672.427,717.027 672.5,715.5 Z"/></g> <g><path style="opacity:1" fill="#787878" d="M 268.5,725.5 C 268.573,727.027 267.906,728.027 266.5,728.5C 266.427,726.973 267.094,725.973 268.5,725.5 Z"/></g> <g><path style="opacity:1" fill="#9d9d9d" d="M 358.5,771.5 C 353.326,768.523 347.992,765.689 342.5,763C 328.793,760.681 315.126,758.181 301.5,755.5C 301.649,754.448 301.483,753.448 301,752.5C 299.549,757.182 297.882,761.849 296,766.5C 289.62,769.894 285.953,775.227 285,782.5C 283.532,802.973 281.032,823.307 277.5,843.5C 278.262,853.498 278.928,863.498 279.5,873.5C 279.167,873.5 278.833,873.5 278.5,873.5C 276.845,863.612 275.845,853.612 275.5,843.5C 272.644,810.289 274.477,777.289 281,744.5C 282.334,738.168 285,732.501 289,727.5C 292.102,730.212 294.602,733.379 296.5,737C 297.76,738.113 298.927,738.28 300,737.5C 300.862,739.087 301.529,740.754 302,742.5C 322.524,747.518 341.357,757.185 358.5,771.5 Z"/></g> <g><path style="opacity:1" fill="#787878" d="M 258.5,739.5 C 258.573,741.027 257.906,742.027 256.5,742.5C 256.427,740.973 257.094,739.973 258.5,739.5 Z"/></g> <g><path style="opacity:1" fill="#757575" d="M 251.5,747.5 C 247.833,753.167 243.167,757.833 237.5,761.5C 241.833,756.5 246.5,751.833 251.5,747.5 Z"/></g> <g><path style="opacity:1" fill="#787878" d="M 702.5,763.5 C 703.906,763.973 704.573,764.973 704.5,766.5C 703.094,766.027 702.427,765.027 702.5,763.5 Z"/></g> <g><path style="opacity:1" fill="#727272" d="M 185.5,791.5 C 180.722,793.279 175.722,794.613 170.5,795.5C 175.089,792.976 180.089,791.642 185.5,791.5 Z"/></g> <g><path style="opacity:1" fill="#757575" d="M 651.5,706.5 C 664.593,735.808 668.76,766.475 664,798.5C 657.303,833.956 649.97,869.289 642,904.5C 637.55,933.868 632.883,963.201 628,992.5C 626.77,999.62 623.937,1005.95 619.5,1011.5C 617.833,1011.5 616.167,1011.5 614.5,1011.5C 620.848,1006.82 624.681,1000.49 626,992.5C 630.658,965.553 634.991,938.553 639,911.5C 647.642,873.291 655.642,834.958 663,796.5C 667.059,766.412 663.226,737.412 651.5,709.5C 651.5,708.5 651.5,707.5 651.5,706.5 Z"/></g> <g><path style="opacity:1" fill="#767676" d="M 844.5,833.5 C 846.153,833.66 847.486,834.326 848.5,835.5C 846.62,835.771 845.287,835.104 844.5,833.5 Z"/></g> <g><path style="opacity:1" fill="#666666" d="M 33.5,845.5 C 22.2581,849.692 10.9248,853.692 -0.5,857.5C -0.5,856.5 -0.5,855.5 -0.5,854.5C 1.45525,854.201 2.78859,853.201 3.5,851.5C 12.3171,849.61 20.4837,846.943 28,843.5C 30.0299,843.954 31.8632,844.62 33.5,845.5 Z"/></g> <g><path style="opacity:1" fill="#6f6f6f" d="M 872.5,845.5 C 875.241,845.707 877.574,846.707 879.5,848.5C 876.759,848.293 874.426,847.293 872.5,845.5 Z"/></g> <g><path style="opacity:1" fill="#000000" d="M -0.5,851.5 C 0.833333,851.5 2.16667,851.5 3.5,851.5C 2.78859,853.201 1.45525,854.201 -0.5,854.5C -0.5,853.5 -0.5,852.5 -0.5,851.5 Z"/></g> <g><path style="opacity:1" fill="#9c9c9c" d="M 502.5,854.5 C 486.168,856.918 485.835,859.752 501.5,863C 495.509,863.499 489.509,863.666 483.5,863.5C 479.298,863.817 475.298,863.483 471.5,862.5C 460.526,859.274 449.193,857.941 437.5,858.5C 447.673,857.283 458.007,857.283 468.5,858.5C 478.652,856.754 488.819,855.087 499,853.5C 500.385,853.514 501.551,853.848 502.5,854.5 Z"/></g> <g><path style="opacity:1" fill="#656565" d="M 502.5,854.5 C 512.207,854.509 521.207,856.842 529.5,861.5C 522.807,859.326 515.974,857.659 509,856.5C 507.188,856.493 505.688,857.16 504.5,858.5C 509.5,861.333 514.5,864.167 519.5,867C 507.396,865.783 495.396,864.617 483.5,863.5C 489.509,863.666 495.509,863.499 501.5,863C 485.835,859.752 486.168,856.918 502.5,854.5 Z"/></g> <g><path style="opacity:1" fill="#010101" d="M 529.5,861.5 C 529.842,862.338 530.508,862.672 531.5,862.5C 533.181,864.008 535.181,865.008 537.5,865.5C 551.951,872.912 565.618,881.578 578.5,891.5C 579.585,893.587 581.251,894.92 583.5,895.5C 586.963,899.464 590.63,903.298 594.5,907C 589.471,908.54 584.471,908.206 579.5,906C 568.641,899.654 557.141,894.821 545,891.5C 539.291,892.266 534.791,894.933 531.5,899.5C 512.484,918.786 501.65,942.119 499,969.5C 498.5,983.496 498.333,997.496 498.5,1011.5C 480.167,1011.5 461.833,1011.5 443.5,1011.5C 447.093,1009.74 449.926,1007.08 452,1003.5C 454.001,997.337 455.167,991.004 455.5,984.5C 455.302,969.93 452.468,955.93 447,942.5C 443.769,936.601 439.769,931.268 435,926.5C 424.113,916.946 413.946,906.779 404.5,896C 399.622,894.446 394.956,892.446 390.5,890C 382.128,889.895 373.795,890.228 365.5,891C 369.68,888.304 373.68,885.47 377.5,882.5C 389.351,874.909 402.018,868.909 415.5,864.5C 423.283,861.888 431.283,860.222 439.5,859.5C 450.173,860.501 460.84,861.501 471.5,862.5C 475.298,863.483 479.298,863.817 483.5,863.5C 495.396,864.617 507.396,865.783 519.5,867C 514.5,864.167 509.5,861.333 504.5,858.5C 505.688,857.16 507.188,856.493 509,856.5C 515.974,857.659 522.807,859.326 529.5,861.5 Z"/></g> <g><path style="opacity:1" fill="#5f605f" d="M 155.5,858.5 C 156.043,858.56 156.376,858.893 156.5,859.5C 144.269,883.214 131.435,906.547 118,929.5C 117.672,926.793 118.005,924.126 119,921.5C 129.144,899.195 141.311,878.195 155.5,858.5 Z"/></g> <g><path style="opacity:1" fill="#666666" d="M 437.5,858.5 C 449.193,857.941 460.526,859.274 471.5,862.5C 460.84,861.501 450.173,860.501 439.5,859.5C 431.283,860.222 423.283,861.888 415.5,864.5C 422.309,860.962 429.643,858.962 437.5,858.5 Z"/></g> <g><path style="opacity:1" fill="#8d8d8d" d="M 531.5,862.5 C 534.089,862.461 536.089,863.461 537.5,865.5C 535.181,865.008 533.181,864.008 531.5,862.5 Z"/></g> <g><path style="opacity:1" fill="#747474" d="M 278.5,873.5 C 278.833,873.5 279.167,873.5 279.5,873.5C 282.879,900.369 284.546,927.369 284.5,954.5C 283.354,927.587 281.354,900.587 278.5,873.5 Z"/></g> <g><path style="opacity:1" fill="#5f5f5f" d="M 671.5,882.5 C 676.669,890.394 681.836,899.061 687,908.5C 687.654,909.696 688.154,909.696 688.5,908.5C 687.695,906.085 686.695,903.751 685.5,901.5C 685.846,900.304 686.346,900.304 687,901.5C 695.962,917.263 705.795,932.43 716.5,947C 714.583,946.973 712.916,946.139 711.5,944.5C 711.167,944.667 710.833,944.833 710.5,945C 713.363,949.364 717.03,952.864 721.5,955.5C 714.376,958.561 707.709,962.395 701.5,967C 696.227,969.116 691.061,968.949 686,966.5C 685.309,959.379 683.976,952.379 682,945.5C 677.129,932.721 672.963,919.721 669.5,906.5C 669.057,898.485 669.723,890.485 671.5,882.5 Z"/></g> <g><path style="opacity:1" fill="#626262" d="M 377.5,882.5 C 373.68,885.47 369.68,888.304 365.5,891C 373.795,890.228 382.128,889.895 390.5,890C 394.956,892.446 399.622,894.446 404.5,896C 413.946,906.779 424.113,916.946 435,926.5C 439.769,931.268 443.769,936.601 447,942.5C 452.468,955.93 455.302,969.93 455.5,984.5C 455.167,991.004 454.001,997.337 452,1003.5C 449.926,1007.08 447.093,1009.74 443.5,1011.5C 430.5,1011.5 417.5,1011.5 404.5,1011.5C 415.361,1010.82 426.361,1009.99 437.5,1009C 441.311,1007.93 444.644,1006.1 447.5,1003.5C 449.694,1001.78 450.861,999.445 451,996.5C 451.468,980.309 448.802,964.643 443,949.5C 440.916,945.664 438.583,941.997 436,938.5C 426.667,929.833 417.333,921.167 408,912.5C 403.937,908.081 401.937,903.081 402,897.5C 400.006,896.336 397.839,895.669 395.5,895.5C 380.435,894.579 365.602,896.246 351,900.5C 350.53,899.423 350.697,898.423 351.5,897.5C 359.505,891.493 368.172,886.493 377.5,882.5 Z"/></g> <g><path style="opacity:1" fill="#7c7c7c" d="M 578.5,891.5 C 580.749,892.08 582.415,893.413 583.5,895.5C 581.251,894.92 579.585,893.587 578.5,891.5 Z"/></g> <g><path style="opacity:1" fill="#9e9f9e" d="M 447.5,1003.5 C 449.855,993.19 449.689,982.857 447,972.5C 445.433,958.197 439.267,946.364 428.5,937C 415.283,928.121 403.617,917.454 393.5,905C 389.947,902.056 385.947,899.89 381.5,898.5C 373.914,900.06 366.247,901.226 358.5,902C 351.152,904.335 343.819,906.335 336.5,908C 340.845,903.476 345.845,899.976 351.5,897.5C 350.697,898.423 350.53,899.423 351,900.5C 365.602,896.246 380.435,894.579 395.5,895.5C 397.839,895.669 400.006,896.336 402,897.5C 401.937,903.081 403.937,908.081 408,912.5C 417.333,921.167 426.667,929.833 436,938.5C 438.583,941.997 440.916,945.664 443,949.5C 448.802,964.643 451.468,980.309 451,996.5C 450.861,999.445 449.694,1001.78 447.5,1003.5 Z"/></g> <g><path style="opacity:1" fill="#6b6b6b" d="M 583.5,895.5 C 590.795,900.794 597.795,906.461 604.5,912.5C 605.476,913.815 606.476,915.148 607.5,916.5C 605.854,917.66 604.021,918.327 602,918.5C 597.996,917.874 594.163,916.708 590.5,915C 585.447,912.473 580.447,909.973 575.5,907.5C 567.22,902.419 558.553,897.919 549.5,894C 546.833,893.333 544.167,893.333 541.5,894C 537.771,895.255 534.438,897.088 531.5,899.5C 534.791,894.933 539.291,892.266 545,891.5C 557.141,894.821 568.641,899.654 579.5,906C 584.471,908.206 589.471,908.54 594.5,907C 590.63,903.298 586.963,899.464 583.5,895.5 Z"/></g> <g><path style="opacity:1" fill="#9e9f9e" d="M 575.5,907.5 C 580.447,909.973 585.447,912.473 590.5,915C 594.163,916.708 597.996,917.874 602,918.5C 604.021,918.327 605.854,917.66 607.5,916.5C 606.476,915.148 605.476,913.815 604.5,912.5C 608.21,914.785 611.71,917.452 615,920.5C 616.401,922.146 616.568,923.813 615.5,925.5C 600.622,922.724 587.288,916.724 575.5,907.5 Z"/></g> <g><path style="opacity:1" fill="#5f605f" d="M 231.5,912.5 C 232.465,913.721 232.298,915.054 231,916.5C 222.051,929.117 212.717,941.45 203,953.5C 198.801,958.034 194.301,962.201 189.5,966C 184.85,967.909 180.184,967.909 175.5,966C 168.773,963.803 162.439,960.803 156.5,957C 157.167,956.667 157.833,956.333 158.5,956C 154.648,953.588 154.815,952.421 159,952.5C 166.238,953.857 173.404,955.524 180.5,957.5C 183.702,956.901 186.702,955.734 189.5,954C 199.897,942.934 210.897,932.601 222.5,923C 225.336,919.333 228.336,915.833 231.5,912.5 Z"/></g> <g><path style="opacity:1" fill="#5f5f5f" d="M 913.5,941.5 C 913.5,942.833 913.5,944.167 913.5,945.5C 903.139,942.756 892.806,942.923 882.5,946C 880.5,947.333 878.5,948.667 876.5,950C 880.79,949.412 885.123,949.078 889.5,949C 881.1,951.406 873.1,954.74 865.5,959C 849.594,962.073 835.094,968.24 822,977.5C 821.517,978.448 821.351,979.448 821.5,980.5C 835.391,980.787 836.057,983.954 823.5,990C 822.167,990.667 822.167,991.333 823.5,992C 838.004,995.241 852.671,996.241 867.5,995C 878.423,992.897 889.423,991.23 900.5,990C 896.181,989.24 891.848,988.573 887.5,988C 895.988,985.53 904.655,984.03 913.5,983.5C 913.5,992.167 913.5,1000.83 913.5,1009.5C 859,1009.99 804.5,1010.32 750,1010.5C 731.818,1010.5 713.651,1010 695.5,1009C 696.833,1008.67 698.167,1008.33 699.5,1008C 696.294,1007.38 695.294,1005.71 696.5,1003C 695.167,1002.33 693.833,1001.67 692.5,1001C 695.833,999.667 699.167,998.333 702.5,997C 700.5,996.333 698.5,995.667 696.5,995C 697.833,994.333 697.833,993.667 696.5,993C 699.207,991.801 699.874,989.967 698.5,987.5C 695.334,986.766 692.334,985.6 689.5,984C 741.251,970.86 791.585,953.527 840.5,932C 849.326,928.724 858.326,926.058 867.5,924C 873.865,922.194 880.199,922.194 886.5,924C 879.943,925.562 873.609,927.896 867.5,931C 872.012,931.5 876.512,931.333 881,930.5C 884.523,930.837 888.023,931.337 891.5,932C 898.504,936.004 905.838,939.171 913.5,941.5 Z"/></g> <g><path style="opacity:1" fill="#000000" d="M 833.5,943.5 C 834.552,943.351 835.552,943.517 836.5,944C 825.053,950.147 813.053,954.48 800.5,957C 811.399,951.985 822.399,947.485 833.5,943.5 Z"/></g> <g><path style="opacity:1" fill="#000000" d="M 913.5,945.5 C 913.5,953.167 913.5,960.833 913.5,968.5C 903.763,969.426 894.097,970.926 884.5,973C 894.148,972.802 903.814,972.635 913.5,972.5C 913.5,976.167 913.5,979.833 913.5,983.5C 904.655,984.03 895.988,985.53 887.5,988C 891.848,988.573 896.181,989.24 900.5,990C 889.423,991.23 878.423,992.897 867.5,995C 852.671,996.241 838.004,995.241 823.5,992C 822.167,991.333 822.167,990.667 823.5,990C 836.057,983.954 835.391,980.787 821.5,980.5C 821.351,979.448 821.517,978.448 822,977.5C 835.094,968.24 849.594,962.073 865.5,959C 873.1,954.74 881.1,951.406 889.5,949C 885.123,949.078 880.79,949.412 876.5,950C 878.5,948.667 880.5,947.333 882.5,946C 892.806,942.923 903.139,942.756 913.5,945.5 Z"/></g> <g><path style="opacity:1" fill="#5f605f" d="M 913.5,968.5 C 913.5,969.833 913.5,971.167 913.5,972.5C 903.814,972.635 894.148,972.802 884.5,973C 894.097,970.926 903.763,969.426 913.5,968.5 Z"/></g> <g><path style="opacity:1" fill="#5f605f" d="M 716.5,969.5 C 720.893,969.457 721.226,969.957 717.5,971C 713.246,972.484 708.913,973.151 704.5,973C 708.709,972.119 712.709,970.953 716.5,969.5 Z"/></g> </svg>